<svg width="0" height="0" style="position:absolute"><symbol fill="none" viewBox="0 0 44 13" id="arrow-icon" xmlns="http://www.w3.org/2000/svg"><path d="M38.686 7.883c-2.053 0-4.115.067-6.16-.008-9.36-.38-18.719-.792-28.069-1.23-1.049-.05-2.089-.235-3.12-.445-.766-.152-1.41-.548-1.33-1.432.079-.875.766-1.203 1.55-1.203 3.297.016 6.593.016 9.889.151 7.57.312 15.14.69 22.78.884-.308-.135-.616-.278-.933-.404-1.842-.732-3.693-1.456-5.535-2.197a4.238 4.238 0 0 1-.907-.497c-.53-.379-.538-.698-.476-.985.088-.446.449-.538.969-.513.326.017.705 0 1.031.1 4.45 1.423 8.892 2.855 13.325 4.32a5.571 5.571 0 0 1 1.56.816c1.154.867.916 2.374-.423 2.92-3.798 1.541-7.597 3.073-11.395 4.606-.256.1-.37.16-.793.227-.37.059-.82-.261-.978-.539-.124-.219.017-.766.238-.943.414-.328.96-.538 1.48-.724 2.194-.79 4.398-1.557 6.6-2.331.248-.085.486-.202.732-.295.291-.152.476-.227-.035-.278Z" fill="#B24DC2"/></symbol><symbol fill="none" viewBox="0 0 265 120" id="footer-logo" xmlns="http://www.w3.org/2000/svg"><mask id="ba" fill="#fff"><path d="M92.183 67.615c-5.633 0-10.388-1.027-14.264-3.082l2.997-9.185c4.115 1.462 7.791 2.193 11.027 2.193 1.758 0 3.037-.198 3.836-.593.839-.434 1.258-1.066 1.258-1.896 0-.553-.22-1.027-.659-1.422-.44-.435-1.318-.909-2.637-1.423-1.318-.513-3.296-1.145-5.933-1.896-3.236-.948-5.753-2.489-7.551-4.622-1.798-2.173-2.697-4.662-2.697-7.467 0-4.345 1.438-7.625 4.315-9.837 2.917-2.252 6.832-3.378 11.746-3.378 2.558 0 5.075.277 7.552.83 2.477.514 4.674 1.284 6.592 2.311l-3.236 8.948c-2.238-.75-4.195-1.284-5.873-1.6a22.568 22.568 0 0 0-4.795-.533c-2.637 0-3.955.711-3.955 2.133 0 .711.42 1.324 1.258 1.837.88.474 2.657 1.087 5.334 1.837 4.195 1.106 7.372 2.805 9.529 5.097 2.158 2.252 3.236 4.958 3.236 8.118 0 4.385-1.438 7.763-4.315 10.133-2.876 2.331-7.131 3.497-12.765 3.497ZM112.248 25.896h13.484l3.896 26.015 4.015-19.081h13.964l4.075 19.081 3.896-26.015h13.484l-9.349 40.77h-13.964l-5.094-21.925-5.094 21.926h-13.964l-9.349-40.77ZM174.23 25.896h13.844v40.77H174.23v-40.77ZM227.109 67.615c-7.511 0-12.106-3.437-13.784-10.311l-1.498-6.104h-2.817v15.467h-13.125v-40.77h18.159c3.436 0 6.453.513 9.05 1.54 2.637.988 4.674 2.39 6.113 4.207 1.438 1.818 2.157 3.912 2.157 6.282 0 2.647-.659 4.879-1.977 6.696-1.279 1.778-3.277 3.24-5.994 4.385.28 1.502.6 2.865.959 4.09.48 1.5 1.139 2.547 1.978 3.14s2.058.889 3.656.889c.559 0 1.438-.08 2.637-.237v9.66c-1.878.71-3.716 1.066-5.514 1.066Zm-15.822-24.711c2.957 0 5.035-.316 6.233-.948 1.239-.672 1.858-1.798 1.858-3.378 0-1.343-.499-2.311-1.498-2.904-.999-.632-2.577-.948-4.735-.948h-4.135v8.178h2.277ZM237.731 25.896h12.946V57.66H265v9.008h-27.269v-40.77ZM89.254 87.289h-8.57V78.28h31.104v9.008h-8.57v31.763H89.254V87.289ZM136.277 120c-4.315 0-8.151-.909-11.507-2.726-3.316-1.817-5.913-4.326-7.791-7.526-1.838-3.239-2.757-6.913-2.757-11.022 0-4.148.919-7.842 2.757-11.082 1.878-3.24 4.475-5.748 7.791-7.526 3.356-1.817 7.192-2.725 11.507-2.725 4.315 0 8.131.908 11.447 2.725 3.356 1.778 5.953 4.287 7.791 7.526 1.878 3.2 2.817 6.894 2.817 11.082 0 4.109-.939 7.783-2.817 11.022-1.838 3.2-4.435 5.709-7.791 7.526-3.356 1.817-7.172 2.726-11.447 2.726Zm0-10.785c2.517 0 4.575-.968 6.173-2.904 1.638-1.936 2.457-4.484 2.457-7.644 0-2.094-.379-3.951-1.139-5.57-.719-1.66-1.738-2.944-3.056-3.853-1.319-.948-2.817-1.422-4.495-1.422a7.417 7.417 0 0 0-4.435 1.422c-1.318.91-2.337 2.193-3.056 3.852-.719 1.62-1.079 3.477-1.079 5.57 0 3.161.799 5.709 2.397 7.645 1.598 1.936 3.676 2.904 6.233 2.904ZM164.076 78.281h14.863c6.153 0 10.907 1.186 14.264 3.556 3.396 2.37 5.094 5.689 5.094 9.956 0 2.686-.839 5.037-2.517 7.051-1.639 2.015-3.896 3.576-6.773 4.682-2.836 1.067-5.993 1.6-9.469 1.6h-2.517v13.926h-12.945v-40.77Zm15.522 18.608c2.118 0 3.756-.435 4.915-1.304 1.158-.869 1.738-2.133 1.738-3.792 0-1.66-.58-2.904-1.738-3.734-1.119-.83-2.757-1.244-4.915-1.244h-2.577v9.955a26.26 26.26 0 0 0 2.577.119ZM202.996 78.281h13.844v40.771h-13.844v-40.77ZM232.442 78.281h18.219l11.926 40.771h-14.084l-1.558-7.822h-10.668l-1.738 7.822h-13.484l11.387-40.77Zm13.065 25.66-3.896-17.837-4.075 17.837h7.971ZM48.473 120h-23.53a1.41 1.41 0 0 1-1.397-1.211l-3.749-26.132H17.1a1.408 1.408 0 0 1-1.369-1.067l-3.816-15.203C4.777 74.544 0 68.883 0 61.602c0-7.316 4.745-12.64 12.224-14.234-2.663-2.043-4.38-5.25-4.38-8.851 0-6.16 5.031-11.172 11.216-11.172.172 0 .337.031.49.086.153-.055.318-.086.49-.086h1.934c-1.538-2.629-2.365-6.164-2.365-8.36 0-8.85 6.741-15.038 20.605-18.92a1.331 1.331 0 0 1 .71-.031c.2.042.388.128.545.241.168.125.31.285.411.477.079.144.13.3.15.464.011.075.015.149.015.22.008 7.124 2.479 8.874 4.898 9.644l.726.23c4.714 1.492 10.06 3.18 10.06 9.629 0 2.363-.828 4.754-2.22 6.66 6.267 1.058 10.553 5.328 10.553 10.918 0 3.976-1.29 6.902-4.004 8.964 7.765 1.942 11.357 8.22 11.357 14.121 0 7.239-4.878 13.008-11.926 14.828l-3.804 15.16a1.412 1.412 0 0 1-1.372 1.067h-2.699l-3.749 26.132A1.399 1.399 0 0 1 48.473 120Zm-22.307-2.812h21.08l3.517-24.528H22.644l3.522 24.528Zm-7.965-27.344h37.013l3.236-12.89c-.584.054-1.184.082-1.788.082h-39.54c-.737 0-1.458-.04-2.164-.106L18.2 89.844ZM17.122 49.69c-6.596 0-14.298 3.12-14.298 11.913 0 7.426 5.882 12.614 14.298 12.614h39.54c7.941 0 13.93-5.422 13.93-12.614 0-5.93-4.251-11.913-13.754-11.913H41.492c-.78 0-1.412-.63-1.412-1.407s.632-1.406 1.412-1.406h15.746c4.26-1.563 6-4 6-8.363 0-4.84-4.549-8.355-10.828-8.36h-.09a1.398 1.398 0 0 1-.568-.152 1.382 1.382 0 0 1-.699-.828 1.287 1.287 0 0 1-.066-.5c.012-.203.066-.394.153-.566.086-.172.208-.325.364-.45.024-.019.052-.038.079-.058 1.533-1.113 3.322-3.523 3.322-6.66 0-4.18-3.075-5.363-8.09-6.945l-.73-.23c-4.248-1.352-6.436-4.708-6.809-10.493-11.479 3.524-16.844 8.543-16.844 15.715 0 2.281 1.197 6.578 3.036 8.359h7.318c.78 0 1.412.629 1.412 1.406 0 .778-.632 1.406-1.412 1.406H20.04c-.172 0-.337-.03-.49-.085a1.453 1.453 0 0 1-.49.085c-4.628 0-8.393 3.75-8.393 8.36 0 4.61 3.765 8.359 8.393 8.359h1.96c.781 0 1.413.629 1.413 1.406 0 .778-.632 1.407-1.412 1.407h-3.899Z"/></mask><path d="M92.183 67.615c-5.633 0-10.388-1.027-14.264-3.082l2.997-9.185c4.115 1.462 7.791 2.193 11.027 2.193 1.758 0 3.037-.198 3.836-.593.839-.434 1.258-1.066 1.258-1.896 0-.553-.22-1.027-.659-1.422-.44-.435-1.318-.909-2.637-1.423-1.318-.513-3.296-1.145-5.933-1.896-3.236-.948-5.753-2.489-7.551-4.622-1.798-2.173-2.697-4.662-2.697-7.467 0-4.345 1.438-7.625 4.315-9.837 2.917-2.252 6.832-3.378 11.746-3.378 2.558 0 5.075.277 7.552.83 2.477.514 4.674 1.284 6.592 2.311l-3.236 8.948c-2.238-.75-4.195-1.284-5.873-1.6a22.568 22.568 0 0 0-4.795-.533c-2.637 0-3.955.711-3.955 2.133 0 .711.42 1.324 1.258 1.837.88.474 2.657 1.087 5.334 1.837 4.195 1.106 7.372 2.805 9.529 5.097 2.158 2.252 3.236 4.958 3.236 8.118 0 4.385-1.438 7.763-4.315 10.133-2.876 2.331-7.131 3.497-12.765 3.497ZM112.248 25.896h13.484l3.896 26.015 4.015-19.081h13.964l4.075 19.081 3.896-26.015h13.484l-9.349 40.77h-13.964l-5.094-21.925-5.094 21.926h-13.964l-9.349-40.77ZM174.23 25.896h13.844v40.77H174.23v-40.77ZM227.109 67.615c-7.511 0-12.106-3.437-13.784-10.311l-1.498-6.104h-2.817v15.467h-13.125v-40.77h18.159c3.436 0 6.453.513 9.05 1.54 2.637.988 4.674 2.39 6.113 4.207 1.438 1.818 2.157 3.912 2.157 6.282 0 2.647-.659 4.879-1.977 6.696-1.279 1.778-3.277 3.24-5.994 4.385.28 1.502.6 2.865.959 4.09.48 1.5 1.139 2.547 1.978 3.14s2.058.889 3.656.889c.559 0 1.438-.08 2.637-.237v9.66c-1.878.71-3.716 1.066-5.514 1.066Zm-15.822-24.711c2.957 0 5.035-.316 6.233-.948 1.239-.672 1.858-1.798 1.858-3.378 0-1.343-.499-2.311-1.498-2.904-.999-.632-2.577-.948-4.735-.948h-4.135v8.178h2.277ZM237.731 25.896h12.946V57.66H265v9.008h-27.269v-40.77ZM89.254 87.289h-8.57V78.28h31.104v9.008h-8.57v31.763H89.254V87.289ZM136.277 120c-4.315 0-8.151-.909-11.507-2.726-3.316-1.817-5.913-4.326-7.791-7.526-1.838-3.239-2.757-6.913-2.757-11.022 0-4.148.919-7.842 2.757-11.082 1.878-3.24 4.475-5.748 7.791-7.526 3.356-1.817 7.192-2.725 11.507-2.725 4.315 0 8.131.908 11.447 2.725 3.356 1.778 5.953 4.287 7.791 7.526 1.878 3.2 2.817 6.894 2.817 11.082 0 4.109-.939 7.783-2.817 11.022-1.838 3.2-4.435 5.709-7.791 7.526-3.356 1.817-7.172 2.726-11.447 2.726Zm0-10.785c2.517 0 4.575-.968 6.173-2.904 1.638-1.936 2.457-4.484 2.457-7.644 0-2.094-.379-3.951-1.139-5.57-.719-1.66-1.738-2.944-3.056-3.853-1.319-.948-2.817-1.422-4.495-1.422a7.417 7.417 0 0 0-4.435 1.422c-1.318.91-2.337 2.193-3.056 3.852-.719 1.62-1.079 3.477-1.079 5.57 0 3.161.799 5.709 2.397 7.645 1.598 1.936 3.676 2.904 6.233 2.904ZM164.076 78.281h14.863c6.153 0 10.907 1.186 14.264 3.556 3.396 2.37 5.094 5.689 5.094 9.956 0 2.686-.839 5.037-2.517 7.051-1.639 2.015-3.896 3.576-6.773 4.682-2.836 1.067-5.993 1.6-9.469 1.6h-2.517v13.926h-12.945v-40.77Zm15.522 18.608c2.118 0 3.756-.435 4.915-1.304 1.158-.869 1.738-2.133 1.738-3.792 0-1.66-.58-2.904-1.738-3.734-1.119-.83-2.757-1.244-4.915-1.244h-2.577v9.955a26.26 26.26 0 0 0 2.577.119ZM202.996 78.281h13.844v40.771h-13.844v-40.77ZM232.442 78.281h18.219l11.926 40.771h-14.084l-1.558-7.822h-10.668l-1.738 7.822h-13.484l11.387-40.77Zm13.065 25.66-3.896-17.837-4.075 17.837h7.971ZM48.473 120h-23.53a1.41 1.41 0 0 1-1.397-1.211l-3.749-26.132H17.1a1.408 1.408 0 0 1-1.369-1.067l-3.816-15.203C4.777 74.544 0 68.883 0 61.602c0-7.316 4.745-12.64 12.224-14.234-2.663-2.043-4.38-5.25-4.38-8.851 0-6.16 5.031-11.172 11.216-11.172.172 0 .337.031.49.086.153-.055.318-.086.49-.086h1.934c-1.538-2.629-2.365-6.164-2.365-8.36 0-8.85 6.741-15.038 20.605-18.92a1.331 1.331 0 0 1 .71-.031c.2.042.388.128.545.241.168.125.31.285.411.477.079.144.13.3.15.464.011.075.015.149.015.22.008 7.124 2.479 8.874 4.898 9.644l.726.23c4.714 1.492 10.06 3.18 10.06 9.629 0 2.363-.828 4.754-2.22 6.66 6.267 1.058 10.553 5.328 10.553 10.918 0 3.976-1.29 6.902-4.004 8.964 7.765 1.942 11.357 8.22 11.357 14.121 0 7.239-4.878 13.008-11.926 14.828l-3.804 15.16a1.412 1.412 0 0 1-1.372 1.067h-2.699l-3.749 26.132A1.399 1.399 0 0 1 48.473 120Zm-22.307-2.812h21.08l3.517-24.528H22.644l3.522 24.528Zm-7.965-27.344h37.013l3.236-12.89c-.584.054-1.184.082-1.788.082h-39.54c-.737 0-1.458-.04-2.164-.106L18.2 89.844ZM17.122 49.69c-6.596 0-14.298 3.12-14.298 11.913 0 7.426 5.882 12.614 14.298 12.614h39.54c7.941 0 13.93-5.422 13.93-12.614 0-5.93-4.251-11.913-13.754-11.913H41.492c-.78 0-1.412-.63-1.412-1.407s.632-1.406 1.412-1.406h15.746c4.26-1.563 6-4 6-8.363 0-4.84-4.549-8.355-10.828-8.36h-.09a1.398 1.398 0 0 1-.568-.152 1.382 1.382 0 0 1-.699-.828 1.287 1.287 0 0 1-.066-.5c.012-.203.066-.394.153-.566.086-.172.208-.325.364-.45.024-.019.052-.038.079-.058 1.533-1.113 3.322-3.523 3.322-6.66 0-4.18-3.075-5.363-8.09-6.945l-.73-.23c-4.248-1.352-6.436-4.708-6.809-10.493-11.479 3.524-16.844 8.543-16.844 15.715 0 2.281 1.197 6.578 3.036 8.359h7.318c.78 0 1.412.629 1.412 1.406 0 .778-.632 1.406-1.412 1.406H20.04c-.172 0-.337-.03-.49-.085a1.453 1.453 0 0 1-.49.085c-4.628 0-8.393 3.75-8.393 8.36 0 4.61 3.765 8.359 8.393 8.359h1.96c.781 0 1.413.629 1.413 1.406 0 .778-.632 1.407-1.412 1.407h-3.899Z" fill="#fff"/><path d="M92.183 67.615c-5.633 0-10.388-1.027-14.264-3.082l2.997-9.185c4.115 1.462 7.791 2.193 11.027 2.193 1.758 0 3.037-.198 3.836-.593.839-.434 1.258-1.066 1.258-1.896 0-.553-.22-1.027-.659-1.422-.44-.435-1.318-.909-2.637-1.423-1.318-.513-3.296-1.145-5.933-1.896-3.236-.948-5.753-2.489-7.551-4.622-1.798-2.173-2.697-4.662-2.697-7.467 0-4.345 1.438-7.625 4.315-9.837 2.917-2.252 6.832-3.378 11.746-3.378 2.558 0 5.075.277 7.552.83 2.477.514 4.674 1.284 6.592 2.311l-3.236 8.948c-2.238-.75-4.195-1.284-5.873-1.6a22.568 22.568 0 0 0-4.795-.533c-2.637 0-3.955.711-3.955 2.133 0 .711.42 1.324 1.258 1.837.88.474 2.657 1.087 5.334 1.837 4.195 1.106 7.372 2.805 9.529 5.097 2.158 2.252 3.236 4.958 3.236 8.118 0 4.385-1.438 7.763-4.315 10.133-2.876 2.331-7.131 3.497-12.765 3.497ZM112.248 25.896h13.484l3.896 26.015 4.015-19.081h13.964l4.075 19.081 3.896-26.015h13.484l-9.349 40.77h-13.964l-5.094-21.925-5.094 21.926h-13.964l-9.349-40.77ZM174.23 25.896h13.844v40.77H174.23v-40.77ZM227.109 67.615c-7.511 0-12.106-3.437-13.784-10.311l-1.498-6.104h-2.817v15.467h-13.125v-40.77h18.159c3.436 0 6.453.513 9.05 1.54 2.637.988 4.674 2.39 6.113 4.207 1.438 1.818 2.157 3.912 2.157 6.282 0 2.647-.659 4.879-1.977 6.696-1.279 1.778-3.277 3.24-5.994 4.385.28 1.502.6 2.865.959 4.09.48 1.5 1.139 2.547 1.978 3.14s2.058.889 3.656.889c.559 0 1.438-.08 2.637-.237v9.66c-1.878.71-3.716 1.066-5.514 1.066Zm-15.822-24.711c2.957 0 5.035-.316 6.233-.948 1.239-.672 1.858-1.798 1.858-3.378 0-1.343-.499-2.311-1.498-2.904-.999-.632-2.577-.948-4.735-.948h-4.135v8.178h2.277ZM237.731 25.896h12.946V57.66H265v9.008h-27.269v-40.77ZM89.254 87.289h-8.57V78.28h31.104v9.008h-8.57v31.763H89.254V87.289ZM136.277 120c-4.315 0-8.151-.909-11.507-2.726-3.316-1.817-5.913-4.326-7.791-7.526-1.838-3.239-2.757-6.913-2.757-11.022 0-4.148.919-7.842 2.757-11.082 1.878-3.24 4.475-5.748 7.791-7.526 3.356-1.817 7.192-2.725 11.507-2.725 4.315 0 8.131.908 11.447 2.725 3.356 1.778 5.953 4.287 7.791 7.526 1.878 3.2 2.817 6.894 2.817 11.082 0 4.109-.939 7.783-2.817 11.022-1.838 3.2-4.435 5.709-7.791 7.526-3.356 1.817-7.172 2.726-11.447 2.726Zm0-10.785c2.517 0 4.575-.968 6.173-2.904 1.638-1.936 2.457-4.484 2.457-7.644 0-2.094-.379-3.951-1.139-5.57-.719-1.66-1.738-2.944-3.056-3.853-1.319-.948-2.817-1.422-4.495-1.422a7.417 7.417 0 0 0-4.435 1.422c-1.318.91-2.337 2.193-3.056 3.852-.719 1.62-1.079 3.477-1.079 5.57 0 3.161.799 5.709 2.397 7.645 1.598 1.936 3.676 2.904 6.233 2.904ZM164.076 78.281h14.863c6.153 0 10.907 1.186 14.264 3.556 3.396 2.37 5.094 5.689 5.094 9.956 0 2.686-.839 5.037-2.517 7.051-1.639 2.015-3.896 3.576-6.773 4.682-2.836 1.067-5.993 1.6-9.469 1.6h-2.517v13.926h-12.945v-40.77Zm15.522 18.608c2.118 0 3.756-.435 4.915-1.304 1.158-.869 1.738-2.133 1.738-3.792 0-1.66-.58-2.904-1.738-3.734-1.119-.83-2.757-1.244-4.915-1.244h-2.577v9.955a26.26 26.26 0 0 0 2.577.119ZM202.996 78.281h13.844v40.771h-13.844v-40.77ZM232.442 78.281h18.219l11.926 40.771h-14.084l-1.558-7.822h-10.668l-1.738 7.822h-13.484l11.387-40.77Zm13.065 25.66-3.896-17.837-4.075 17.837h7.971ZM48.473 120h-23.53a1.41 1.41 0 0 1-1.397-1.211l-3.749-26.132H17.1a1.408 1.408 0 0 1-1.369-1.067l-3.816-15.203C4.777 74.544 0 68.883 0 61.602c0-7.316 4.745-12.64 12.224-14.234-2.663-2.043-4.38-5.25-4.38-8.851 0-6.16 5.031-11.172 11.216-11.172.172 0 .337.031.49.086.153-.055.318-.086.49-.086h1.934c-1.538-2.629-2.365-6.164-2.365-8.36 0-8.85 6.741-15.038 20.605-18.92a1.331 1.331 0 0 1 .71-.031c.2.042.388.128.545.241.168.125.31.285.411.477.079.144.13.3.15.464.011.075.015.149.015.22.008 7.124 2.479 8.874 4.898 9.644l.726.23c4.714 1.492 10.06 3.18 10.06 9.629 0 2.363-.828 4.754-2.22 6.66 6.267 1.058 10.553 5.328 10.553 10.918 0 3.976-1.29 6.902-4.004 8.964 7.765 1.942 11.357 8.22 11.357 14.121 0 7.239-4.878 13.008-11.926 14.828l-3.804 15.16a1.412 1.412 0 0 1-1.372 1.067h-2.699l-3.749 26.132A1.399 1.399 0 0 1 48.473 120Zm-22.307-2.812h21.08l3.517-24.528H22.644l3.522 24.528Zm-7.965-27.344h37.013l3.236-12.89c-.584.054-1.184.082-1.788.082h-39.54c-.737 0-1.458-.04-2.164-.106L18.2 89.844ZM17.122 49.69c-6.596 0-14.298 3.12-14.298 11.913 0 7.426 5.882 12.614 14.298 12.614h39.54c7.941 0 13.93-5.422 13.93-12.614 0-5.93-4.251-11.913-13.754-11.913H41.492c-.78 0-1.412-.63-1.412-1.407s.632-1.406 1.412-1.406h15.746c4.26-1.563 6-4 6-8.363 0-4.84-4.549-8.355-10.828-8.36h-.09a1.398 1.398 0 0 1-.568-.152 1.382 1.382 0 0 1-.699-.828 1.287 1.287 0 0 1-.066-.5c.012-.203.066-.394.153-.566.086-.172.208-.325.364-.45.024-.019.052-.038.079-.058 1.533-1.113 3.322-3.523 3.322-6.66 0-4.18-3.075-5.363-8.09-6.945l-.73-.23c-4.248-1.352-6.436-4.708-6.809-10.493-11.479 3.524-16.844 8.543-16.844 15.715 0 2.281 1.197 6.578 3.036 8.359h7.318c.78 0 1.412.629 1.412 1.406 0 .778-.632 1.406-1.412 1.406H20.04c-.172 0-.337-.03-.49-.085a1.453 1.453 0 0 1-.49.085c-4.628 0-8.393 3.75-8.393 8.36 0 4.61 3.765 8.359 8.393 8.359h1.96c.781 0 1.413.629 1.413 1.406 0 .778-.632 1.407-1.412 1.407h-3.899Z" stroke="#fff" stroke-width="5.026" mask="url(#ba)"/></symbol><symbol fill="none" viewBox="0 0 149 68" id="header-logo" xmlns="http://www.w3.org/2000/svg"><mask id="ca" fill="#fff"><path d="M51.831 38.315c-3.167 0-5.84-.582-8.02-1.746l1.685-5.205c2.314.828 4.38 1.242 6.2 1.242.989 0 1.708-.111 2.157-.335.472-.247.708-.605.708-1.075a1.05 1.05 0 0 0-.371-.806c-.247-.246-.741-.515-1.483-.806-.741-.29-1.853-.649-3.336-1.074-1.82-.538-3.235-1.41-4.245-2.62-1.011-1.23-1.517-2.641-1.517-4.23 0-2.463.809-4.321 2.426-5.575 1.64-1.276 3.842-1.914 6.605-1.914 1.438 0 2.853.157 4.246.47 1.393.291 2.628.728 3.706 1.31l-1.82 5.07c-1.257-.425-2.358-.727-3.301-.906a12.595 12.595 0 0 0-2.696-.303c-1.483 0-2.224.403-2.224 1.21 0 .402.236.75.707 1.04.495.269 1.494.616 3 1.041 2.358.627 4.144 1.59 5.357 2.888 1.213 1.276 1.82 2.81 1.82 4.6 0 2.486-.809 4.4-2.426 5.743-1.618 1.32-4.01 1.981-7.178 1.981ZM63.113 14.675h7.582l2.19 14.741 2.258-10.813h7.851l2.291 10.813 2.19-14.741h7.583L89.8 37.778h-7.852l-2.864-12.425-2.864 12.425H68.37l-5.257-23.103ZM97.963 14.675h7.785v23.103h-7.785V14.675ZM127.695 38.315c-4.223 0-6.806-1.948-7.75-5.843l-.842-3.459h-1.584v8.765h-7.38V14.675h10.21c1.932 0 3.628.29 5.089.873 1.482.56 2.628 1.354 3.437 2.384.808 1.03 1.213 2.216 1.213 3.56 0 1.5-.371 2.764-1.112 3.794-.719 1.007-1.842 1.836-3.37 2.485.157.85.337 1.623.539 2.317.27.85.641 1.444 1.112 1.78.472.335 1.157.503 2.056.503.314 0 .809-.044 1.482-.134v5.474c-1.055.403-2.089.604-3.1.604Zm-8.896-14.003c1.663 0 2.831-.179 3.505-.537.696-.38 1.044-1.019 1.044-1.914 0-.761-.28-1.31-.842-1.646-.562-.358-1.449-.537-2.662-.537h-2.325v4.634h1.28ZM133.668 14.675h7.278v17.999H149v5.104h-15.332V14.675ZM50.184 49.464h-4.818v-5.105h17.489v5.105h-4.82v17.999h-7.85v-18ZM76.624 68c-2.426 0-4.583-.515-6.47-1.545-1.865-1.03-3.325-2.451-4.38-4.264-1.034-1.836-1.55-3.918-1.55-6.246 0-2.35.516-4.444 1.55-6.28a10.98 10.98 0 0 1 4.38-4.264c1.887-1.03 4.044-1.545 6.47-1.545s4.571.515 6.436 1.544c1.887 1.008 3.347 2.43 4.38 4.265 1.056 1.813 1.584 3.907 1.584 6.28 0 2.328-.528 4.41-1.584 6.246-1.033 1.813-2.493 3.234-4.38 4.264C81.173 67.485 79.027 68 76.624 68Zm0-6.112c1.415 0 2.572-.548 3.47-1.645.922-1.097 1.382-2.54 1.382-4.332 0-1.186-.213-2.239-.64-3.156-.404-.94-.977-1.668-1.719-2.183a4.2 4.2 0 0 0-2.527-.806c-.921 0-1.752.269-2.494.806-.74.515-1.314 1.242-1.718 2.183-.404.917-.607 1.97-.607 3.156 0 1.791.45 3.235 1.348 4.332.899 1.097 2.067 1.645 3.505 1.645ZM92.254 44.36h8.357c3.46 0 6.133.671 8.02 2.014 1.909 1.343 2.864 3.224 2.864 5.642 0 1.522-.472 2.854-1.415 3.996-.921 1.142-2.19 2.026-3.808 2.653-1.595.604-3.37.906-5.324.906h-1.415v7.892h-7.279V44.36Zm8.728 10.544c1.19 0 2.111-.247 2.763-.74.651-.492.977-1.208.977-2.148 0-.94-.326-1.646-.977-2.116-.629-.47-1.55-.705-2.763-.705h-1.45v5.642c.45.044.933.067 1.45.067ZM114.137 44.36h7.784v23.103h-7.784V44.36ZM130.694 44.36h10.244l6.705 23.103h-7.918l-.877-4.433h-5.998l-.977 4.433h-7.582l6.403-23.103Zm7.346 14.54-2.191-10.108-2.291 10.108h4.482ZM27.255 68h-13.23a.794.794 0 0 1-.786-.686l-2.108-14.809H9.614a.793.793 0 0 1-.77-.604L6.7 43.286C2.686 42.241 0 39.034 0 34.908c0-4.146 2.668-7.163 6.873-8.066a6.329 6.329 0 0 1-2.463-5.016c0-3.49 2.83-6.33 6.307-6.33.097 0 .19.017.275.048a.81.81 0 0 1 .276-.049h1.087c-.864-1.49-1.33-3.492-1.33-4.736 0-5.016 3.79-8.522 11.586-10.723a.743.743 0 0 1 .4-.018.821.821 0 0 1 .305.138.806.806 0 0 1 .325.657c.004 4.038 1.393 5.03 2.754 5.465l.408.131c2.65.846 5.656 1.802 5.656 5.456 0 1.34-.466 2.694-1.249 3.774 3.524.6 5.934 3.02 5.934 6.187 0 2.253-.725 3.911-2.251 5.08 4.366 1.1 6.386 4.657 6.386 8.002 0 4.102-2.743 7.371-6.706 8.402l-2.139 8.591a.795.795 0 0 1-.771.604h-1.518l-2.108 14.809a.788.788 0 0 1-.782.686Zm-12.543-1.594h11.852l1.978-13.898h-15.81l1.98 13.898Zm-4.478-15.494h20.811l1.82-7.305c-.33.031-.667.047-1.006.047H9.627c-.414 0-.82-.023-1.217-.06l1.824 7.318Zm-.607-22.755c-3.709 0-8.04 1.768-8.04 6.751 0 4.208 3.308 7.147 8.04 7.147H31.86c4.465 0 7.832-3.072 7.832-7.147 0-3.36-2.39-6.751-7.733-6.751H23.33a.795.795 0 0 1-.794-.797c0-.44.355-.797.794-.797h8.853c2.395-.885 3.374-2.267 3.374-4.739 0-2.743-2.558-4.735-6.089-4.737h-.05a.78.78 0 0 1-.573-.292.772.772 0 0 1-.14-.264.733.733 0 0 1-.037-.283.825.825 0 0 1 .086-.32.757.757 0 0 1 .205-.255l.044-.034c.862-.63 1.868-1.996 1.868-3.774 0-2.368-1.729-3.039-4.55-3.935l-.41-.13c-2.387-.767-3.618-2.668-3.827-5.946-6.454 1.996-9.471 4.84-9.471 8.905 0 1.292.673 3.727 1.707 4.736h4.114c.44 0 .794.357.794.797 0 .44-.355.797-.794.797H11.268a.813.813 0 0 1-.276-.048.814.814 0 0 1-.275.048c-2.602 0-4.72 2.125-4.72 4.737s2.118 4.737 4.72 4.737h1.102c.439 0 .794.357.794.797 0 .44-.355.797-.794.797H9.627Z"/></mask><path d="M51.831 38.315c-3.167 0-5.84-.582-8.02-1.746l1.685-5.205c2.314.828 4.38 1.242 6.2 1.242.989 0 1.708-.111 2.157-.335.472-.247.708-.605.708-1.075a1.05 1.05 0 0 0-.371-.806c-.247-.246-.741-.515-1.483-.806-.741-.29-1.853-.649-3.336-1.074-1.82-.538-3.235-1.41-4.245-2.62-1.011-1.23-1.517-2.641-1.517-4.23 0-2.463.809-4.321 2.426-5.575 1.64-1.276 3.842-1.914 6.605-1.914 1.438 0 2.853.157 4.246.47 1.393.291 2.628.728 3.706 1.31l-1.82 5.07c-1.257-.425-2.358-.727-3.301-.906a12.595 12.595 0 0 0-2.696-.303c-1.483 0-2.224.403-2.224 1.21 0 .402.236.75.707 1.04.495.269 1.494.616 3 1.041 2.358.627 4.144 1.59 5.357 2.888 1.213 1.276 1.82 2.81 1.82 4.6 0 2.486-.809 4.4-2.426 5.743-1.618 1.32-4.01 1.981-7.178 1.981ZM63.113 14.675h7.582l2.19 14.741 2.258-10.813h7.851l2.291 10.813 2.19-14.741h7.583L89.8 37.778h-7.852l-2.864-12.425-2.864 12.425H68.37l-5.257-23.103ZM97.963 14.675h7.785v23.103h-7.785V14.675ZM127.695 38.315c-4.223 0-6.806-1.948-7.75-5.843l-.842-3.459h-1.584v8.765h-7.38V14.675h10.21c1.932 0 3.628.29 5.089.873 1.482.56 2.628 1.354 3.437 2.384.808 1.03 1.213 2.216 1.213 3.56 0 1.5-.371 2.764-1.112 3.794-.719 1.007-1.842 1.836-3.37 2.485.157.85.337 1.623.539 2.317.27.85.641 1.444 1.112 1.78.472.335 1.157.503 2.056.503.314 0 .809-.044 1.482-.134v5.474c-1.055.403-2.089.604-3.1.604Zm-8.896-14.003c1.663 0 2.831-.179 3.505-.537.696-.38 1.044-1.019 1.044-1.914 0-.761-.28-1.31-.842-1.646-.562-.358-1.449-.537-2.662-.537h-2.325v4.634h1.28ZM133.668 14.675h7.278v17.999H149v5.104h-15.332V14.675ZM50.184 49.464h-4.818v-5.105h17.489v5.105h-4.82v17.999h-7.85v-18ZM76.624 68c-2.426 0-4.583-.515-6.47-1.545-1.865-1.03-3.325-2.451-4.38-4.264-1.034-1.836-1.55-3.918-1.55-6.246 0-2.35.516-4.444 1.55-6.28a10.98 10.98 0 0 1 4.38-4.264c1.887-1.03 4.044-1.545 6.47-1.545s4.571.515 6.436 1.544c1.887 1.008 3.347 2.43 4.38 4.265 1.056 1.813 1.584 3.907 1.584 6.28 0 2.328-.528 4.41-1.584 6.246-1.033 1.813-2.493 3.234-4.38 4.264C81.173 67.485 79.027 68 76.624 68Zm0-6.112c1.415 0 2.572-.548 3.47-1.645.922-1.097 1.382-2.54 1.382-4.332 0-1.186-.213-2.239-.64-3.156-.404-.94-.977-1.668-1.719-2.183a4.2 4.2 0 0 0-2.527-.806c-.921 0-1.752.269-2.494.806-.74.515-1.314 1.242-1.718 2.183-.404.917-.607 1.97-.607 3.156 0 1.791.45 3.235 1.348 4.332.899 1.097 2.067 1.645 3.505 1.645ZM92.254 44.36h8.357c3.46 0 6.133.671 8.02 2.014 1.909 1.343 2.864 3.224 2.864 5.642 0 1.522-.472 2.854-1.415 3.996-.921 1.142-2.19 2.026-3.808 2.653-1.595.604-3.37.906-5.324.906h-1.415v7.892h-7.279V44.36Zm8.728 10.544c1.19 0 2.111-.247 2.763-.74.651-.492.977-1.208.977-2.148 0-.94-.326-1.646-.977-2.116-.629-.47-1.55-.705-2.763-.705h-1.45v5.642c.45.044.933.067 1.45.067ZM114.137 44.36h7.784v23.103h-7.784V44.36ZM130.694 44.36h10.244l6.705 23.103h-7.918l-.877-4.433h-5.998l-.977 4.433h-7.582l6.403-23.103Zm7.346 14.54-2.191-10.108-2.291 10.108h4.482Z" fill="#B24DC2"/><path d="M51.831 38.315c-3.167 0-5.84-.582-8.02-1.746l1.685-5.205c2.314.828 4.38 1.242 6.2 1.242.989 0 1.708-.111 2.157-.335.472-.247.708-.605.708-1.075a1.05 1.05 0 0 0-.371-.806c-.247-.246-.741-.515-1.483-.806-.741-.29-1.853-.649-3.336-1.074-1.82-.538-3.235-1.41-4.245-2.62-1.011-1.23-1.517-2.641-1.517-4.23 0-2.463.809-4.321 2.426-5.575 1.64-1.276 3.842-1.914 6.605-1.914 1.438 0 2.853.157 4.246.47 1.393.291 2.628.728 3.706 1.31l-1.82 5.07c-1.257-.425-2.358-.727-3.301-.906a12.595 12.595 0 0 0-2.696-.303c-1.483 0-2.224.403-2.224 1.21 0 .402.236.75.707 1.04.495.269 1.494.616 3 1.041 2.358.627 4.144 1.59 5.357 2.888 1.213 1.276 1.82 2.81 1.82 4.6 0 2.486-.809 4.4-2.426 5.743-1.618 1.32-4.01 1.981-7.178 1.981ZM63.113 14.675h7.582l2.19 14.741 2.258-10.813h7.851l2.291 10.813 2.19-14.741h7.583L89.8 37.778h-7.852l-2.864-12.425-2.864 12.425H68.37l-5.257-23.103ZM97.963 14.675h7.785v23.103h-7.785V14.675ZM127.695 38.315c-4.223 0-6.806-1.948-7.75-5.843l-.842-3.459h-1.584v8.765h-7.38V14.675h10.21c1.932 0 3.628.29 5.089.873 1.482.56 2.628 1.354 3.437 2.384.808 1.03 1.213 2.216 1.213 3.56 0 1.5-.371 2.764-1.112 3.794-.719 1.007-1.842 1.836-3.37 2.485.157.85.337 1.623.539 2.317.27.85.641 1.444 1.112 1.78.472.335 1.157.503 2.056.503.314 0 .809-.044 1.482-.134v5.474c-1.055.403-2.089.604-3.1.604Zm-8.896-14.003c1.663 0 2.831-.179 3.505-.537.696-.38 1.044-1.019 1.044-1.914 0-.761-.28-1.31-.842-1.646-.562-.358-1.449-.537-2.662-.537h-2.325v4.634h1.28ZM133.668 14.675h7.278v17.999H149v5.104h-15.332V14.675ZM50.184 49.464h-4.818v-5.105h17.489v5.105h-4.82v17.999h-7.85v-18ZM76.624 68c-2.426 0-4.583-.515-6.47-1.545-1.865-1.03-3.325-2.451-4.38-4.264-1.034-1.836-1.55-3.918-1.55-6.246 0-2.35.516-4.444 1.55-6.28a10.98 10.98 0 0 1 4.38-4.264c1.887-1.03 4.044-1.545 6.47-1.545s4.571.515 6.436 1.544c1.887 1.008 3.347 2.43 4.38 4.265 1.056 1.813 1.584 3.907 1.584 6.28 0 2.328-.528 4.41-1.584 6.246-1.033 1.813-2.493 3.234-4.38 4.264C81.173 67.485 79.027 68 76.624 68Zm0-6.112c1.415 0 2.572-.548 3.47-1.645.922-1.097 1.382-2.54 1.382-4.332 0-1.186-.213-2.239-.64-3.156-.404-.94-.977-1.668-1.719-2.183a4.2 4.2 0 0 0-2.527-.806c-.921 0-1.752.269-2.494.806-.74.515-1.314 1.242-1.718 2.183-.404.917-.607 1.97-.607 3.156 0 1.791.45 3.235 1.348 4.332.899 1.097 2.067 1.645 3.505 1.645ZM92.254 44.36h8.357c3.46 0 6.133.671 8.02 2.014 1.909 1.343 2.864 3.224 2.864 5.642 0 1.522-.472 2.854-1.415 3.996-.921 1.142-2.19 2.026-3.808 2.653-1.595.604-3.37.906-5.324.906h-1.415v7.892h-7.279V44.36Zm8.728 10.544c1.19 0 2.111-.247 2.763-.74.651-.492.977-1.208.977-2.148 0-.94-.326-1.646-.977-2.116-.629-.47-1.55-.705-2.763-.705h-1.45v5.642c.45.044.933.067 1.45.067ZM114.137 44.36h7.784v23.103h-7.784V44.36ZM130.694 44.36h10.244l6.705 23.103h-7.918l-.877-4.433h-5.998l-.977 4.433h-7.582l6.403-23.103Zm7.346 14.54-2.191-10.108-2.291 10.108h4.482ZM27.255 68h-13.23a.794.794 0 0 1-.786-.686l-2.108-14.809H9.614a.793.793 0 0 1-.77-.604L6.7 43.286C2.686 42.241 0 39.034 0 34.908c0-4.146 2.668-7.163 6.873-8.066a6.329 6.329 0 0 1-2.463-5.016c0-3.49 2.83-6.33 6.307-6.33.097 0 .19.017.275.048a.81.81 0 0 1 .276-.049h1.087c-.864-1.49-1.33-3.492-1.33-4.736 0-5.016 3.79-8.522 11.586-10.723a.743.743 0 0 1 .4-.018.821.821 0 0 1 .305.138.806.806 0 0 1 .325.657c.004 4.038 1.393 5.03 2.754 5.465l.408.131c2.65.846 5.656 1.802 5.656 5.456 0 1.34-.466 2.694-1.249 3.774 3.524.6 5.934 3.02 5.934 6.187 0 2.253-.725 3.911-2.251 5.08 4.366 1.1 6.386 4.657 6.386 8.002 0 4.102-2.743 7.371-6.706 8.402l-2.139 8.591a.795.795 0 0 1-.771.604h-1.518l-2.108 14.809a.788.788 0 0 1-.782.686Zm-12.543-1.594h11.852l1.978-13.898h-15.81l1.98 13.898Zm-4.478-15.494h20.811l1.82-7.305c-.33.031-.667.047-1.006.047H9.627c-.414 0-.82-.023-1.217-.06l1.824 7.318Zm-.607-22.755c-3.709 0-8.04 1.768-8.04 6.751 0 4.208 3.308 7.147 8.04 7.147H31.86c4.465 0 7.832-3.072 7.832-7.147 0-3.36-2.39-6.751-7.733-6.751H23.33a.795.795 0 0 1-.794-.797c0-.44.355-.797.794-.797h8.853c2.395-.885 3.374-2.267 3.374-4.739 0-2.743-2.558-4.735-6.089-4.737h-.05a.78.78 0 0 1-.573-.292.772.772 0 0 1-.14-.264.733.733 0 0 1-.037-.283.825.825 0 0 1 .086-.32.757.757 0 0 1 .205-.255l.044-.034c.862-.63 1.868-1.996 1.868-3.774 0-2.368-1.729-3.039-4.55-3.935l-.41-.13c-2.387-.767-3.618-2.668-3.827-5.946-6.454 1.996-9.471 4.84-9.471 8.905 0 1.292.673 3.727 1.707 4.736h4.114c.44 0 .794.357.794.797 0 .44-.355.797-.794.797H11.268a.813.813 0 0 1-.276-.048.814.814 0 0 1-.275.048c-2.602 0-4.72 2.125-4.72 4.737s2.118 4.737 4.72 4.737h1.102c.439 0 .794.357.794.797 0 .44-.355.797-.794.797H9.627Z" stroke="#B24DC2" stroke-width="5.026" mask="url(#ca)"/></symbol></svg>