<svg width="0" height="0" style="position:absolute"><symbol fill="none" viewBox="0 0 44 13" id="arrow-icon" xmlns="http://www.w3.org/2000/svg"><path d="M38.686 7.883c-2.053 0-4.115.067-6.16-.008-9.36-.38-18.719-.792-28.069-1.23-1.049-.05-2.089-.235-3.12-.445-.766-.152-1.41-.548-1.33-1.432.079-.875.766-1.203 1.55-1.203 3.297.016 6.593.016 9.889.151 7.57.312 15.14.69 22.78.884-.308-.135-.616-.278-.933-.404-1.842-.732-3.693-1.456-5.535-2.197a4.238 4.238 0 0 1-.907-.497c-.53-.379-.538-.698-.476-.985.088-.446.449-.538.969-.513.326.017.705 0 1.031.1 4.45 1.423 8.892 2.855 13.325 4.32a5.571 5.571 0 0 1 1.56.816c1.154.867.916 2.374-.423 2.92-3.798 1.541-7.597 3.073-11.395 4.606-.256.1-.37.16-.793.227-.37.059-.82-.261-.978-.539-.124-.219.017-.766.238-.943.414-.328.96-.538 1.48-.724 2.194-.79 4.398-1.557 6.6-2.331.248-.085.486-.202.732-.295.291-.152.476-.227-.035-.278Z" fill="#B24DC2"/></symbol></svg>