<svg width="44" height="13" viewBox="0 0 44 13" fill="none" xmlns="http://www.w3.org/2000/svg">
<path d="M38.6861 7.88313C36.6327 7.88313 34.5705 7.95048 32.5259 7.87472C23.1667 7.4959 13.8075 7.08342 4.4571 6.64568C3.40838 6.59517 2.36846 6.40997 1.33737 6.19952C0.570651 6.04799 -0.072684 5.65234 0.00663123 4.76844C0.0859465 3.89296 0.773346 3.56466 1.55769 3.56466C4.85368 3.58149 8.14967 3.58149 11.4457 3.71618C19.0159 4.02765 26.5861 4.40647 34.2268 4.60008C33.9183 4.46539 33.6099 4.32229 33.2926 4.19601C31.4507 3.46364 29.6001 2.73968 27.7582 1.99889C27.4409 1.87262 27.1148 1.69584 26.8505 1.50223C26.3217 1.12341 26.3129 0.803527 26.3746 0.517312C26.4627 0.0711534 26.824 -0.0214464 27.344 0.00380778C27.67 0.0206439 28.049 0.0038068 28.3751 0.104824C32.8255 1.52748 37.2672 2.95855 41.7 4.4233C42.2552 4.6085 42.8016 4.89471 43.2599 5.23986C44.4144 6.10692 44.1764 7.61376 42.8369 8.16093C39.0386 9.70144 35.2402 11.2335 31.4419 12.7656C31.1864 12.8666 31.0718 12.9256 30.6488 12.9929C30.2786 13.0518 29.8292 12.732 29.6706 12.4542C29.5472 12.2353 29.6882 11.6881 29.9085 11.5113C30.3227 11.183 30.8691 10.9726 31.3891 10.7874C33.5834 9.99607 35.7866 9.23003 37.9898 8.45556C38.2366 8.37138 38.4746 8.25353 38.7213 8.16093C39.0121 8.00941 39.1972 7.93364 38.6861 7.88313Z" fill="#B24DC2"/>
</svg>
