<svg width="265" height="120" viewBox="0 0 265 120" fill="none" xmlns="http://www.w3.org/2000/svg">
<mask id="path-1-inside-1_32_696" fill="white">
<path d="M92.1831 67.6148C86.5496 67.6148 81.7951 66.5877 77.9195 64.5333L80.9161 55.3482C85.0313 56.8099 88.7071 57.5407 91.9434 57.5407C93.7013 57.5407 94.9799 57.3432 95.779 56.9482C96.618 56.5136 97.0375 55.8815 97.0375 55.0519C97.0375 54.4988 96.8178 54.0247 96.3783 53.6296C95.9388 53.1951 95.0598 52.721 93.7413 52.2074C92.4228 51.6938 90.4451 51.0617 87.8081 50.3111C84.5719 49.363 82.0548 47.8222 80.2568 45.6889C78.4589 43.5161 77.56 41.0272 77.56 38.2222C77.56 33.8766 78.9983 30.5975 81.875 28.3852C84.7916 26.1333 88.7071 25.0074 93.6214 25.0074C96.1785 25.0074 98.6956 25.284 101.173 25.837C103.65 26.3506 105.847 27.121 107.765 28.1482L104.529 37.0963C102.291 36.3457 100.334 35.8124 98.6556 35.4963C97.0175 35.1407 95.4194 34.963 93.8612 34.963C91.2242 34.963 89.9057 35.6741 89.9057 37.0963C89.9057 37.8074 90.3252 38.4198 91.1643 38.9333C92.0433 39.4074 93.8212 40.0198 96.4981 40.7704C100.693 41.8765 103.87 43.5753 106.027 45.8667C108.185 48.1185 109.263 50.8247 109.263 53.9852C109.263 58.3704 107.825 61.7481 104.948 64.1185C102.072 66.4494 97.8166 67.6148 92.1831 67.6148Z"/>
<path d="M112.248 25.8963H125.732L129.628 51.9111L133.643 32.8296H147.607L151.682 51.9111L155.578 25.8963H169.062L159.713 66.6667H145.749L140.655 44.7407L135.561 66.6667H121.597L112.248 25.8963Z"/>
<path d="M174.23 25.8963H188.074V66.6667H174.23V25.8963Z"/>
<path d="M227.109 67.6148C219.598 67.6148 215.003 64.1778 213.325 57.3037L211.827 51.2H209.01V66.6667H195.885V25.8963H214.044C217.48 25.8963 220.497 26.4099 223.094 27.437C225.731 28.4247 227.768 29.8272 229.207 31.6444C230.645 33.4617 231.364 35.5556 231.364 37.9259C231.364 40.5728 230.705 42.8049 229.387 44.6222C228.108 46.4 226.11 47.8617 223.393 49.0074C223.673 50.5086 223.993 51.8716 224.352 53.0963C224.832 54.5975 225.491 55.6444 226.33 56.237C227.169 56.8296 228.388 57.1259 229.986 57.1259C230.545 57.1259 231.424 57.0469 232.623 56.8889V66.5482C230.745 67.2593 228.907 67.6148 227.109 67.6148ZM211.287 42.9037C214.244 42.9037 216.322 42.5877 217.52 41.9556C218.759 41.284 219.378 40.158 219.378 38.5778C219.378 37.2346 218.879 36.2667 217.88 35.6741C216.881 35.042 215.303 34.7259 213.145 34.7259H209.01V42.9037H211.287Z"/>
<path d="M237.731 25.8963H250.677V57.6593H265V66.6667H237.731V25.8963Z"/>
<path d="M89.2542 87.2889H80.6841V78.2815H111.788V87.2889H103.218V119.052H89.2542V87.2889Z"/>
<path d="M136.277 120C131.962 120 128.126 119.091 124.77 117.274C121.454 115.457 118.857 112.948 116.979 109.748C115.141 106.509 114.222 102.835 114.222 98.7259C114.222 94.5778 115.141 90.8839 116.979 87.6444C118.857 84.4049 121.454 81.8963 124.77 80.1185C128.126 78.3012 131.962 77.3926 136.277 77.3926C140.592 77.3926 144.408 78.3012 147.724 80.1185C151.08 81.8963 153.677 84.4049 155.515 87.6444C157.393 90.8444 158.332 94.5383 158.332 98.7259C158.332 102.835 157.393 106.509 155.515 109.748C153.677 112.948 151.08 115.457 147.724 117.274C144.368 119.091 140.552 120 136.277 120ZM136.277 109.215C138.794 109.215 140.852 108.247 142.45 106.311C144.088 104.375 144.907 101.827 144.907 98.6667C144.907 96.5728 144.528 94.716 143.768 93.0963C143.049 91.437 142.03 90.1531 140.712 89.2444C139.393 88.2963 137.895 87.8222 136.217 87.8222C134.579 87.8222 133.101 88.2963 131.782 89.2444C130.464 90.1531 129.445 91.437 128.726 93.0963C128.007 94.716 127.647 96.5728 127.647 98.6667C127.647 101.827 128.446 104.375 130.044 106.311C131.642 108.247 133.72 109.215 136.277 109.215Z"/>
<path d="M164.076 78.2815H178.939C185.092 78.2815 189.846 79.4667 193.203 81.837C196.599 84.2074 198.297 87.5259 198.297 91.7926C198.297 94.479 197.458 96.8296 195.78 98.8444C194.141 100.859 191.884 102.42 189.007 103.526C186.171 104.593 183.014 105.126 179.538 105.126H177.021V119.052H164.076V78.2815ZM179.598 96.8889C181.716 96.8889 183.354 96.4543 184.513 95.5852C185.671 94.716 186.251 93.4518 186.251 91.7926C186.251 90.1333 185.671 88.8889 184.513 88.0593C183.394 87.2296 181.756 86.8148 179.598 86.8148H177.021V96.7704C177.82 96.8494 178.679 96.8889 179.598 96.8889Z"/>
<path d="M202.996 78.2815H216.84V119.052H202.996V78.2815Z"/>
<path d="M232.442 78.2815H250.661L262.587 119.052H248.503L246.945 111.23H236.277L234.539 119.052H221.055L232.442 78.2815ZM245.507 103.941L241.611 86.1037L237.536 103.941H245.507Z"/>
<path d="M48.473 120H24.9424C24.2404 120 23.6443 119.484 23.5463 118.789L19.7971 92.6566H17.0989C16.4518 92.6566 15.8871 92.2191 15.7302 91.5902L11.9143 76.3873C4.77671 74.5436 0 68.8835 0 61.6024C0 54.2861 4.74533 48.9619 12.2241 47.3682C9.56125 45.3253 7.84353 42.1183 7.84353 38.5168C7.84353 32.3567 12.8751 27.345 19.0598 27.345C19.2323 27.345 19.397 27.3763 19.55 27.431C19.7029 27.3763 19.8676 27.345 20.0402 27.345H21.9736C20.4363 24.7162 19.6088 21.1811 19.6088 18.9858C19.6088 10.1343 26.3503 3.94694 40.2137 0.0641776C40.2883 0.0407404 40.3628 0.0251156 40.4412 0.013397C40.6059 -0.0100402 40.7667 -0.00222779 40.9236 0.032928C41.1236 0.0758961 41.3118 0.161832 41.4687 0.275112C41.6373 0.40011 41.7785 0.560264 41.8805 0.751668C41.9589 0.896197 42.0099 1.05244 42.0295 1.2165C42.0413 1.29072 42.0452 1.36494 42.0452 1.43525C42.053 8.56015 44.5238 10.3101 46.9435 11.0796L47.669 11.3101C52.383 12.8023 57.7283 14.4898 57.7283 20.9389C57.7283 23.3021 56.9008 25.6927 55.5086 27.5989C61.7756 28.6575 66.0621 32.927 66.0621 38.5168C66.0621 42.4933 64.7718 45.419 62.058 47.4815C69.823 49.4229 73.4154 55.7001 73.4154 61.6024C73.4154 68.8406 68.5367 74.61 61.4893 76.4303L57.6852 91.5902C57.5283 92.2191 56.9597 92.6566 56.3126 92.6566H53.6144L49.8652 118.789C49.7711 119.488 49.175 120 48.473 120ZM26.166 117.188H47.2455L50.7633 92.6605H22.6442L26.166 117.188ZM18.2009 89.8442H55.2145L58.4499 76.9537C57.8656 77.0084 57.2656 77.0357 56.6616 77.0357H17.1224C16.3851 77.0357 15.6635 76.9967 14.9576 76.9303L18.2009 89.8442ZM17.1224 49.6885C10.526 49.6885 2.82367 52.8095 2.82367 61.6024C2.82367 69.0281 8.70631 74.2155 17.1224 74.2155H56.6616C64.6032 74.2155 70.5917 68.7937 70.5917 61.6024C70.5917 55.6728 66.3405 49.6885 56.8381 49.6885H41.4922C40.7118 49.6885 40.0804 49.0596 40.0804 48.2823C40.0804 47.5049 40.7118 46.876 41.4922 46.876H57.2381C61.4971 45.3135 63.2384 42.8761 63.2384 38.5129C63.2384 33.6731 58.6892 30.1575 52.4104 30.1536C52.3947 30.1536 52.3516 30.1536 52.3202 30.1536C52.1163 30.1458 51.9241 30.0872 51.7516 30.0013C51.5829 29.9153 51.4261 29.7942 51.3006 29.638C51.1908 29.5013 51.1045 29.345 51.0535 29.1731C50.9986 29.0091 50.9751 28.8411 50.9868 28.6732C50.9986 28.47 51.0535 28.2786 51.1398 28.1068C51.2261 27.9349 51.3476 27.7825 51.5045 27.6575C51.528 27.638 51.5555 27.6185 51.5829 27.5989C53.1163 26.4857 54.9047 24.0756 54.9047 20.9389C54.9047 16.7593 51.83 15.5757 46.8141 13.9937L46.0846 13.7632C41.8374 12.4117 39.649 9.05624 39.2764 3.27116C27.7975 6.79455 22.4325 11.814 22.4325 18.9858C22.4325 21.267 23.6286 25.5638 25.4679 27.345H32.7859C33.5664 27.345 34.1978 27.9739 34.1978 28.7513C34.1978 29.5286 33.5664 30.1575 32.7859 30.1575H24.9542C24.9463 30.1575 24.9385 30.1575 24.9267 30.1575H20.0402C19.8676 30.1575 19.7029 30.1263 19.55 30.0716C19.397 30.1263 19.2323 30.1575 19.0598 30.1575C14.4321 30.1575 10.6672 33.9075 10.6672 38.5168C10.6672 43.1261 14.4321 46.876 19.0598 46.876H21.0206C21.8011 46.876 22.4325 47.5049 22.4325 48.2823C22.4325 49.0596 21.8011 49.6885 21.0206 49.6885H17.1224Z"/>
</mask>
<path d="M92.1831 67.6148C86.5496 67.6148 81.7951 66.5877 77.9195 64.5333L80.9161 55.3482C85.0313 56.8099 88.7071 57.5407 91.9434 57.5407C93.7013 57.5407 94.9799 57.3432 95.779 56.9482C96.618 56.5136 97.0375 55.8815 97.0375 55.0519C97.0375 54.4988 96.8178 54.0247 96.3783 53.6296C95.9388 53.1951 95.0598 52.721 93.7413 52.2074C92.4228 51.6938 90.4451 51.0617 87.8081 50.3111C84.5719 49.363 82.0548 47.8222 80.2568 45.6889C78.4589 43.5161 77.56 41.0272 77.56 38.2222C77.56 33.8766 78.9983 30.5975 81.875 28.3852C84.7916 26.1333 88.7071 25.0074 93.6214 25.0074C96.1785 25.0074 98.6956 25.284 101.173 25.837C103.65 26.3506 105.847 27.121 107.765 28.1482L104.529 37.0963C102.291 36.3457 100.334 35.8124 98.6556 35.4963C97.0175 35.1407 95.4194 34.963 93.8612 34.963C91.2242 34.963 89.9057 35.6741 89.9057 37.0963C89.9057 37.8074 90.3252 38.4198 91.1643 38.9333C92.0433 39.4074 93.8212 40.0198 96.4981 40.7704C100.693 41.8765 103.87 43.5753 106.027 45.8667C108.185 48.1185 109.263 50.8247 109.263 53.9852C109.263 58.3704 107.825 61.7481 104.948 64.1185C102.072 66.4494 97.8166 67.6148 92.1831 67.6148Z" fill="white"/>
<path d="M112.248 25.8963H125.732L129.628 51.9111L133.643 32.8296H147.607L151.682 51.9111L155.578 25.8963H169.062L159.713 66.6667H145.749L140.655 44.7407L135.561 66.6667H121.597L112.248 25.8963Z" fill="white"/>
<path d="M174.23 25.8963H188.074V66.6667H174.23V25.8963Z" fill="white"/>
<path d="M227.109 67.6148C219.598 67.6148 215.003 64.1778 213.325 57.3037L211.827 51.2H209.01V66.6667H195.885V25.8963H214.044C217.48 25.8963 220.497 26.4099 223.094 27.437C225.731 28.4247 227.768 29.8272 229.207 31.6444C230.645 33.4617 231.364 35.5556 231.364 37.9259C231.364 40.5728 230.705 42.8049 229.387 44.6222C228.108 46.4 226.11 47.8617 223.393 49.0074C223.673 50.5086 223.993 51.8716 224.352 53.0963C224.832 54.5975 225.491 55.6444 226.33 56.237C227.169 56.8296 228.388 57.1259 229.986 57.1259C230.545 57.1259 231.424 57.0469 232.623 56.8889V66.5482C230.745 67.2593 228.907 67.6148 227.109 67.6148ZM211.287 42.9037C214.244 42.9037 216.322 42.5877 217.52 41.9556C218.759 41.284 219.378 40.158 219.378 38.5778C219.378 37.2346 218.879 36.2667 217.88 35.6741C216.881 35.042 215.303 34.7259 213.145 34.7259H209.01V42.9037H211.287Z" fill="white"/>
<path d="M237.731 25.8963H250.677V57.6593H265V66.6667H237.731V25.8963Z" fill="white"/>
<path d="M89.2542 87.2889H80.6841V78.2815H111.788V87.2889H103.218V119.052H89.2542V87.2889Z" fill="white"/>
<path d="M136.277 120C131.962 120 128.126 119.091 124.77 117.274C121.454 115.457 118.857 112.948 116.979 109.748C115.141 106.509 114.222 102.835 114.222 98.7259C114.222 94.5778 115.141 90.8839 116.979 87.6444C118.857 84.4049 121.454 81.8963 124.77 80.1185C128.126 78.3012 131.962 77.3926 136.277 77.3926C140.592 77.3926 144.408 78.3012 147.724 80.1185C151.08 81.8963 153.677 84.4049 155.515 87.6444C157.393 90.8444 158.332 94.5383 158.332 98.7259C158.332 102.835 157.393 106.509 155.515 109.748C153.677 112.948 151.08 115.457 147.724 117.274C144.368 119.091 140.552 120 136.277 120ZM136.277 109.215C138.794 109.215 140.852 108.247 142.45 106.311C144.088 104.375 144.907 101.827 144.907 98.6667C144.907 96.5728 144.528 94.716 143.768 93.0963C143.049 91.437 142.03 90.1531 140.712 89.2444C139.393 88.2963 137.895 87.8222 136.217 87.8222C134.579 87.8222 133.101 88.2963 131.782 89.2444C130.464 90.1531 129.445 91.437 128.726 93.0963C128.007 94.716 127.647 96.5728 127.647 98.6667C127.647 101.827 128.446 104.375 130.044 106.311C131.642 108.247 133.72 109.215 136.277 109.215Z" fill="white"/>
<path d="M164.076 78.2815H178.939C185.092 78.2815 189.846 79.4667 193.203 81.837C196.599 84.2074 198.297 87.5259 198.297 91.7926C198.297 94.479 197.458 96.8296 195.78 98.8444C194.141 100.859 191.884 102.42 189.007 103.526C186.171 104.593 183.014 105.126 179.538 105.126H177.021V119.052H164.076V78.2815ZM179.598 96.8889C181.716 96.8889 183.354 96.4543 184.513 95.5852C185.671 94.716 186.251 93.4518 186.251 91.7926C186.251 90.1333 185.671 88.8889 184.513 88.0593C183.394 87.2296 181.756 86.8148 179.598 86.8148H177.021V96.7704C177.82 96.8494 178.679 96.8889 179.598 96.8889Z" fill="white"/>
<path d="M202.996 78.2815H216.84V119.052H202.996V78.2815Z" fill="white"/>
<path d="M232.442 78.2815H250.661L262.587 119.052H248.503L246.945 111.23H236.277L234.539 119.052H221.055L232.442 78.2815ZM245.507 103.941L241.611 86.1037L237.536 103.941H245.507Z" fill="white"/>
<path d="M48.473 120H24.9424C24.2404 120 23.6443 119.484 23.5463 118.789L19.7971 92.6566H17.0989C16.4518 92.6566 15.8871 92.2191 15.7302 91.5902L11.9143 76.3873C4.77671 74.5436 0 68.8835 0 61.6024C0 54.2861 4.74533 48.9619 12.2241 47.3682C9.56125 45.3253 7.84353 42.1183 7.84353 38.5168C7.84353 32.3567 12.8751 27.345 19.0598 27.345C19.2323 27.345 19.397 27.3763 19.55 27.431C19.7029 27.3763 19.8676 27.345 20.0402 27.345H21.9736C20.4363 24.7162 19.6088 21.1811 19.6088 18.9858C19.6088 10.1343 26.3503 3.94694 40.2137 0.0641776C40.2883 0.0407404 40.3628 0.0251156 40.4412 0.013397C40.6059 -0.0100402 40.7667 -0.00222779 40.9236 0.032928C41.1236 0.0758961 41.3118 0.161832 41.4687 0.275112C41.6373 0.40011 41.7785 0.560264 41.8805 0.751668C41.9589 0.896197 42.0099 1.05244 42.0295 1.2165C42.0413 1.29072 42.0452 1.36494 42.0452 1.43525C42.053 8.56015 44.5238 10.3101 46.9435 11.0796L47.669 11.3101C52.383 12.8023 57.7283 14.4898 57.7283 20.9389C57.7283 23.3021 56.9008 25.6927 55.5086 27.5989C61.7756 28.6575 66.0621 32.927 66.0621 38.5168C66.0621 42.4933 64.7718 45.419 62.058 47.4815C69.823 49.4229 73.4154 55.7001 73.4154 61.6024C73.4154 68.8406 68.5367 74.61 61.4893 76.4303L57.6852 91.5902C57.5283 92.2191 56.9597 92.6566 56.3126 92.6566H53.6144L49.8652 118.789C49.7711 119.488 49.175 120 48.473 120ZM26.166 117.188H47.2455L50.7633 92.6605H22.6442L26.166 117.188ZM18.2009 89.8442H55.2145L58.4499 76.9537C57.8656 77.0084 57.2656 77.0357 56.6616 77.0357H17.1224C16.3851 77.0357 15.6635 76.9967 14.9576 76.9303L18.2009 89.8442ZM17.1224 49.6885C10.526 49.6885 2.82367 52.8095 2.82367 61.6024C2.82367 69.0281 8.70631 74.2155 17.1224 74.2155H56.6616C64.6032 74.2155 70.5917 68.7937 70.5917 61.6024C70.5917 55.6728 66.3405 49.6885 56.8381 49.6885H41.4922C40.7118 49.6885 40.0804 49.0596 40.0804 48.2823C40.0804 47.5049 40.7118 46.876 41.4922 46.876H57.2381C61.4971 45.3135 63.2384 42.8761 63.2384 38.5129C63.2384 33.6731 58.6892 30.1575 52.4104 30.1536C52.3947 30.1536 52.3516 30.1536 52.3202 30.1536C52.1163 30.1458 51.9241 30.0872 51.7516 30.0013C51.5829 29.9153 51.4261 29.7942 51.3006 29.638C51.1908 29.5013 51.1045 29.345 51.0535 29.1731C50.9986 29.0091 50.9751 28.8411 50.9868 28.6732C50.9986 28.47 51.0535 28.2786 51.1398 28.1068C51.2261 27.9349 51.3476 27.7825 51.5045 27.6575C51.528 27.638 51.5555 27.6185 51.5829 27.5989C53.1163 26.4857 54.9047 24.0756 54.9047 20.9389C54.9047 16.7593 51.83 15.5757 46.8141 13.9937L46.0846 13.7632C41.8374 12.4117 39.649 9.05624 39.2764 3.27116C27.7975 6.79455 22.4325 11.814 22.4325 18.9858C22.4325 21.267 23.6286 25.5638 25.4679 27.345H32.7859C33.5664 27.345 34.1978 27.9739 34.1978 28.7513C34.1978 29.5286 33.5664 30.1575 32.7859 30.1575H24.9542C24.9463 30.1575 24.9385 30.1575 24.9267 30.1575H20.0402C19.8676 30.1575 19.7029 30.1263 19.55 30.0716C19.397 30.1263 19.2323 30.1575 19.0598 30.1575C14.4321 30.1575 10.6672 33.9075 10.6672 38.5168C10.6672 43.1261 14.4321 46.876 19.0598 46.876H21.0206C21.8011 46.876 22.4325 47.5049 22.4325 48.2823C22.4325 49.0596 21.8011 49.6885 21.0206 49.6885H17.1224Z" fill="white"/>
<path d="M92.1831 67.6148C86.5496 67.6148 81.7951 66.5877 77.9195 64.5333L80.9161 55.3482C85.0313 56.8099 88.7071 57.5407 91.9434 57.5407C93.7013 57.5407 94.9799 57.3432 95.779 56.9482C96.618 56.5136 97.0375 55.8815 97.0375 55.0519C97.0375 54.4988 96.8178 54.0247 96.3783 53.6296C95.9388 53.1951 95.0598 52.721 93.7413 52.2074C92.4228 51.6938 90.4451 51.0617 87.8081 50.3111C84.5719 49.363 82.0548 47.8222 80.2568 45.6889C78.4589 43.5161 77.56 41.0272 77.56 38.2222C77.56 33.8766 78.9983 30.5975 81.875 28.3852C84.7916 26.1333 88.7071 25.0074 93.6214 25.0074C96.1785 25.0074 98.6956 25.284 101.173 25.837C103.65 26.3506 105.847 27.121 107.765 28.1482L104.529 37.0963C102.291 36.3457 100.334 35.8124 98.6556 35.4963C97.0175 35.1407 95.4194 34.963 93.8612 34.963C91.2242 34.963 89.9057 35.6741 89.9057 37.0963C89.9057 37.8074 90.3252 38.4198 91.1643 38.9333C92.0433 39.4074 93.8212 40.0198 96.4981 40.7704C100.693 41.8765 103.87 43.5753 106.027 45.8667C108.185 48.1185 109.263 50.8247 109.263 53.9852C109.263 58.3704 107.825 61.7481 104.948 64.1185C102.072 66.4494 97.8166 67.6148 92.1831 67.6148Z" stroke="white" stroke-width="5.02578" mask="url(#path-1-inside-1_32_696)"/>
<path d="M112.248 25.8963H125.732L129.628 51.9111L133.643 32.8296H147.607L151.682 51.9111L155.578 25.8963H169.062L159.713 66.6667H145.749L140.655 44.7407L135.561 66.6667H121.597L112.248 25.8963Z" stroke="white" stroke-width="5.02578" mask="url(#path-1-inside-1_32_696)"/>
<path d="M174.23 25.8963H188.074V66.6667H174.23V25.8963Z" stroke="white" stroke-width="5.02578" mask="url(#path-1-inside-1_32_696)"/>
<path d="M227.109 67.6148C219.598 67.6148 215.003 64.1778 213.325 57.3037L211.827 51.2H209.01V66.6667H195.885V25.8963H214.044C217.48 25.8963 220.497 26.4099 223.094 27.437C225.731 28.4247 227.768 29.8272 229.207 31.6444C230.645 33.4617 231.364 35.5556 231.364 37.9259C231.364 40.5728 230.705 42.8049 229.387 44.6222C228.108 46.4 226.11 47.8617 223.393 49.0074C223.673 50.5086 223.993 51.8716 224.352 53.0963C224.832 54.5975 225.491 55.6444 226.33 56.237C227.169 56.8296 228.388 57.1259 229.986 57.1259C230.545 57.1259 231.424 57.0469 232.623 56.8889V66.5482C230.745 67.2593 228.907 67.6148 227.109 67.6148ZM211.287 42.9037C214.244 42.9037 216.322 42.5877 217.52 41.9556C218.759 41.284 219.378 40.158 219.378 38.5778C219.378 37.2346 218.879 36.2667 217.88 35.6741C216.881 35.042 215.303 34.7259 213.145 34.7259H209.01V42.9037H211.287Z" stroke="white" stroke-width="5.02578" mask="url(#path-1-inside-1_32_696)"/>
<path d="M237.731 25.8963H250.677V57.6593H265V66.6667H237.731V25.8963Z" stroke="white" stroke-width="5.02578" mask="url(#path-1-inside-1_32_696)"/>
<path d="M89.2542 87.2889H80.6841V78.2815H111.788V87.2889H103.218V119.052H89.2542V87.2889Z" stroke="white" stroke-width="5.02578" mask="url(#path-1-inside-1_32_696)"/>
<path d="M136.277 120C131.962 120 128.126 119.091 124.77 117.274C121.454 115.457 118.857 112.948 116.979 109.748C115.141 106.509 114.222 102.835 114.222 98.7259C114.222 94.5778 115.141 90.8839 116.979 87.6444C118.857 84.4049 121.454 81.8963 124.77 80.1185C128.126 78.3012 131.962 77.3926 136.277 77.3926C140.592 77.3926 144.408 78.3012 147.724 80.1185C151.08 81.8963 153.677 84.4049 155.515 87.6444C157.393 90.8444 158.332 94.5383 158.332 98.7259C158.332 102.835 157.393 106.509 155.515 109.748C153.677 112.948 151.08 115.457 147.724 117.274C144.368 119.091 140.552 120 136.277 120ZM136.277 109.215C138.794 109.215 140.852 108.247 142.45 106.311C144.088 104.375 144.907 101.827 144.907 98.6667C144.907 96.5728 144.528 94.716 143.768 93.0963C143.049 91.437 142.03 90.1531 140.712 89.2444C139.393 88.2963 137.895 87.8222 136.217 87.8222C134.579 87.8222 133.101 88.2963 131.782 89.2444C130.464 90.1531 129.445 91.437 128.726 93.0963C128.007 94.716 127.647 96.5728 127.647 98.6667C127.647 101.827 128.446 104.375 130.044 106.311C131.642 108.247 133.72 109.215 136.277 109.215Z" stroke="white" stroke-width="5.02578" mask="url(#path-1-inside-1_32_696)"/>
<path d="M164.076 78.2815H178.939C185.092 78.2815 189.846 79.4667 193.203 81.837C196.599 84.2074 198.297 87.5259 198.297 91.7926C198.297 94.479 197.458 96.8296 195.78 98.8444C194.141 100.859 191.884 102.42 189.007 103.526C186.171 104.593 183.014 105.126 179.538 105.126H177.021V119.052H164.076V78.2815ZM179.598 96.8889C181.716 96.8889 183.354 96.4543 184.513 95.5852C185.671 94.716 186.251 93.4518 186.251 91.7926C186.251 90.1333 185.671 88.8889 184.513 88.0593C183.394 87.2296 181.756 86.8148 179.598 86.8148H177.021V96.7704C177.82 96.8494 178.679 96.8889 179.598 96.8889Z" stroke="white" stroke-width="5.02578" mask="url(#path-1-inside-1_32_696)"/>
<path d="M202.996 78.2815H216.84V119.052H202.996V78.2815Z" stroke="white" stroke-width="5.02578" mask="url(#path-1-inside-1_32_696)"/>
<path d="M232.442 78.2815H250.661L262.587 119.052H248.503L246.945 111.23H236.277L234.539 119.052H221.055L232.442 78.2815ZM245.507 103.941L241.611 86.1037L237.536 103.941H245.507Z" stroke="white" stroke-width="5.02578" mask="url(#path-1-inside-1_32_696)"/>
<path d="M48.473 120H24.9424C24.2404 120 23.6443 119.484 23.5463 118.789L19.7971 92.6566H17.0989C16.4518 92.6566 15.8871 92.2191 15.7302 91.5902L11.9143 76.3873C4.77671 74.5436 0 68.8835 0 61.6024C0 54.2861 4.74533 48.9619 12.2241 47.3682C9.56125 45.3253 7.84353 42.1183 7.84353 38.5168C7.84353 32.3567 12.8751 27.345 19.0598 27.345C19.2323 27.345 19.397 27.3763 19.55 27.431C19.7029 27.3763 19.8676 27.345 20.0402 27.345H21.9736C20.4363 24.7162 19.6088 21.1811 19.6088 18.9858C19.6088 10.1343 26.3503 3.94694 40.2137 0.0641776C40.2883 0.0407404 40.3628 0.0251156 40.4412 0.013397C40.6059 -0.0100402 40.7667 -0.00222779 40.9236 0.032928C41.1236 0.0758961 41.3118 0.161832 41.4687 0.275112C41.6373 0.40011 41.7785 0.560264 41.8805 0.751668C41.9589 0.896197 42.0099 1.05244 42.0295 1.2165C42.0413 1.29072 42.0452 1.36494 42.0452 1.43525C42.053 8.56015 44.5238 10.3101 46.9435 11.0796L47.669 11.3101C52.383 12.8023 57.7283 14.4898 57.7283 20.9389C57.7283 23.3021 56.9008 25.6927 55.5086 27.5989C61.7756 28.6575 66.0621 32.927 66.0621 38.5168C66.0621 42.4933 64.7718 45.419 62.058 47.4815C69.823 49.4229 73.4154 55.7001 73.4154 61.6024C73.4154 68.8406 68.5367 74.61 61.4893 76.4303L57.6852 91.5902C57.5283 92.2191 56.9597 92.6566 56.3126 92.6566H53.6144L49.8652 118.789C49.7711 119.488 49.175 120 48.473 120ZM26.166 117.188H47.2455L50.7633 92.6605H22.6442L26.166 117.188ZM18.2009 89.8442H55.2145L58.4499 76.9537C57.8656 77.0084 57.2656 77.0357 56.6616 77.0357H17.1224C16.3851 77.0357 15.6635 76.9967 14.9576 76.9303L18.2009 89.8442ZM17.1224 49.6885C10.526 49.6885 2.82367 52.8095 2.82367 61.6024C2.82367 69.0281 8.70631 74.2155 17.1224 74.2155H56.6616C64.6032 74.2155 70.5917 68.7937 70.5917 61.6024C70.5917 55.6728 66.3405 49.6885 56.8381 49.6885H41.4922C40.7118 49.6885 40.0804 49.0596 40.0804 48.2823C40.0804 47.5049 40.7118 46.876 41.4922 46.876H57.2381C61.4971 45.3135 63.2384 42.8761 63.2384 38.5129C63.2384 33.6731 58.6892 30.1575 52.4104 30.1536C52.3947 30.1536 52.3516 30.1536 52.3202 30.1536C52.1163 30.1458 51.9241 30.0872 51.7516 30.0013C51.5829 29.9153 51.4261 29.7942 51.3006 29.638C51.1908 29.5013 51.1045 29.345 51.0535 29.1731C50.9986 29.0091 50.9751 28.8411 50.9868 28.6732C50.9986 28.47 51.0535 28.2786 51.1398 28.1068C51.2261 27.9349 51.3476 27.7825 51.5045 27.6575C51.528 27.638 51.5555 27.6185 51.5829 27.5989C53.1163 26.4857 54.9047 24.0756 54.9047 20.9389C54.9047 16.7593 51.83 15.5757 46.8141 13.9937L46.0846 13.7632C41.8374 12.4117 39.649 9.05624 39.2764 3.27116C27.7975 6.79455 22.4325 11.814 22.4325 18.9858C22.4325 21.267 23.6286 25.5638 25.4679 27.345H32.7859C33.5664 27.345 34.1978 27.9739 34.1978 28.7513C34.1978 29.5286 33.5664 30.1575 32.7859 30.1575H24.9542C24.9463 30.1575 24.9385 30.1575 24.9267 30.1575H20.0402C19.8676 30.1575 19.7029 30.1263 19.55 30.0716C19.397 30.1263 19.2323 30.1575 19.0598 30.1575C14.4321 30.1575 10.6672 33.9075 10.6672 38.5168C10.6672 43.1261 14.4321 46.876 19.0598 46.876H21.0206C21.8011 46.876 22.4325 47.5049 22.4325 48.2823C22.4325 49.0596 21.8011 49.6885 21.0206 49.6885H17.1224Z" stroke="white" stroke-width="5.02578" mask="url(#path-1-inside-1_32_696)"/>
</svg>
