<svg width="59" height="59" viewBox="0 0 59 59" fill="none" xmlns="http://www.w3.org/2000/svg">
<path fill-rule="evenodd" clip-rule="evenodd" d="M6.95662 13.275C6.37301 13.275 5.8999 13.7703 5.8999 14.3812C5.8999 14.9922 6.37301 15.4875 6.95662 15.4875H52.0432C52.6268 15.4875 53.0999 14.9922 53.0999 14.3812C53.0999 13.7703 52.6268 13.275 52.0432 13.275H6.95662ZM5.8999 29.1312C5.8999 28.5203 6.25473 28.025 6.69244 28.025H40.5074C40.9451 28.025 41.2999 28.5203 41.2999 29.1312C41.2999 29.7422 40.9451 30.2375 40.5074 30.2375H6.69244C6.25473 30.2375 5.8999 29.7422 5.8999 29.1312ZM5.8999 43.8812C5.8999 43.2703 6.37301 42.775 6.95662 42.775H52.0432C52.6268 42.775 53.0999 43.2703 53.0999 43.8812C53.0999 44.4922 52.6268 44.9875 52.0432 44.9875H6.95662C6.37301 44.9875 5.8999 44.4922 5.8999 43.8812Z" fill="#B24DC2"/>
</svg>
