<svg width="149" height="68" viewBox="0 0 149 68" fill="none" xmlns="http://www.w3.org/2000/svg">
<mask id="path-1-inside-1_32_481" fill="white">
<path d="M51.8313 38.3151C48.6637 38.3151 45.9904 37.733 43.8114 36.5689L45.4962 31.364C47.8101 32.1923 49.8768 32.6064 51.6965 32.6064C52.6849 32.6064 53.4038 32.4945 53.8531 32.2706C54.3248 32.0244 54.5607 31.6662 54.5607 31.1961C54.5607 30.8826 54.4372 30.614 54.19 30.3901C53.9429 30.1439 53.4487 29.8752 52.7074 29.5842C51.966 29.2932 50.854 28.935 49.3714 28.5096C47.5517 27.9723 46.1365 27.0993 45.1255 25.8904C44.1146 24.6591 43.6092 23.2487 43.6092 21.6593C43.6092 19.1967 44.4179 17.3386 46.0354 16.0849C47.6753 14.8089 49.8768 14.1709 52.64 14.1709C54.0777 14.1709 55.493 14.3276 56.8858 14.641C58.2786 14.932 59.5142 15.3686 60.5925 15.9506L58.7728 21.0212C57.5148 20.5959 56.414 20.2937 55.4705 20.1146C54.5495 19.9131 53.6509 19.8123 52.7748 19.8123C51.2921 19.8123 50.5508 20.2153 50.5508 21.0212C50.5508 21.4242 50.7866 21.7712 51.2584 22.0622C51.7526 22.3309 52.7523 22.6779 54.2574 23.1032C56.6162 23.73 58.4022 24.6927 59.6153 25.9911C60.8284 27.2672 61.4349 28.8007 61.4349 30.5916C61.4349 33.0765 60.6262 34.9906 59.0087 36.3338C57.3913 37.6547 54.9988 38.3151 51.8313 38.3151Z"/>
<path d="M63.1129 14.6746H70.6947L72.885 29.4163L75.1427 18.6035H82.9941L85.2855 29.4163L87.4758 14.6746H95.0577L89.8009 37.7778H81.9495L79.0853 25.3531L76.221 37.7778H68.3696L63.1129 14.6746Z"/>
<path d="M97.9635 14.6746H105.748V37.7778H97.9635V14.6746Z"/>
<path d="M127.695 38.3151C123.472 38.3151 120.889 36.3674 119.945 32.4721L119.103 29.0133H117.519V37.7778H110.139V14.6746H120.349C122.281 14.6746 123.977 14.9656 125.438 15.5477C126.92 16.1073 128.066 16.9021 128.875 17.9319C129.683 18.9616 130.088 20.1482 130.088 21.4914C130.088 22.9913 129.717 24.2561 128.976 25.2859C128.257 26.2933 127.134 27.1216 125.606 27.7709C125.763 28.6216 125.943 29.3939 126.145 30.0879C126.415 30.9386 126.786 31.5319 127.257 31.8677C127.729 32.2035 128.414 32.3714 129.313 32.3714C129.627 32.3714 130.122 32.3266 130.795 32.237V37.7106C129.74 38.1136 128.706 38.3151 127.695 38.3151ZM118.799 24.3121C120.462 24.3121 121.63 24.133 122.304 23.7748C123 23.3942 123.348 22.7562 123.348 21.8607C123.348 21.0996 123.068 20.5511 122.506 20.2153C121.944 19.8571 121.057 19.678 119.844 19.678H117.519V24.3121H118.799Z"/>
<path d="M133.668 14.6746H140.946V32.6736H149V37.7778H133.668V14.6746Z"/>
<path d="M50.1844 49.4637H45.3658V44.3595H62.8545V49.4637H58.0359V67.4627H50.1844V49.4637Z"/>
<path d="M76.6237 68C74.1975 68 72.0409 67.4851 70.1539 66.4553C68.2893 65.4255 66.8291 64.0039 65.7733 62.1906C64.7399 60.3549 64.2232 58.2729 64.2232 55.9447C64.2232 53.5941 64.7399 51.5009 65.7733 49.6652C66.8291 47.8295 68.2893 46.4079 70.1539 45.4005C72.0409 44.3707 74.1975 43.8558 76.6237 43.8558C79.0499 43.8558 81.1953 44.3707 83.0598 45.4005C84.9469 46.4079 86.4071 47.8295 87.4404 49.6652C88.4963 51.4785 89.0242 53.5717 89.0242 55.9447C89.0242 58.2729 88.4963 60.3549 87.4404 62.1906C86.4071 64.0039 84.9469 65.4255 83.0598 66.4553C81.1728 67.4851 79.0274 68 76.6237 68ZM76.6237 61.8884C78.039 61.8884 79.1959 61.3399 80.0945 60.243C81.0155 59.146 81.4761 57.7021 81.4761 55.9111C81.4761 54.7246 81.2627 53.6724 80.8358 52.7546C80.4315 51.8143 79.8586 51.0867 79.1173 50.5718C78.3759 50.0346 77.5335 49.7659 76.59 49.7659C75.6689 49.7659 74.8378 50.0346 74.0964 50.5718C73.3551 51.0867 72.7822 51.8143 72.3779 52.7546C71.9735 53.6724 71.7713 54.7246 71.7713 55.9111C71.7713 57.7021 72.2206 59.146 73.1192 60.243C74.0178 61.3399 75.186 61.8884 76.6237 61.8884Z"/>
<path d="M92.2541 44.3595H100.611C104.071 44.3595 106.744 45.0311 108.631 46.3743C110.54 47.7175 111.495 49.598 111.495 52.0158C111.495 53.5381 111.023 54.8701 110.08 56.0118C109.159 57.1536 107.89 58.0379 106.272 58.6647C104.677 59.2691 102.902 59.5714 100.948 59.5714H99.5327V67.4627H92.2541V44.3595ZM100.982 54.9037C102.172 54.9037 103.093 54.6574 103.745 54.1649C104.396 53.6724 104.722 52.956 104.722 52.0158C104.722 51.0756 104.396 50.3704 103.745 49.9002C103.116 49.4301 102.195 49.1951 100.982 49.1951H99.5327V54.8365C99.9819 54.8813 100.465 54.9037 100.982 54.9037Z"/>
<path d="M114.137 44.3595H121.921V67.4627H114.137V44.3595Z"/>
<path d="M130.694 44.3595H140.938L147.643 67.4627H139.725L138.848 63.0301H132.85L131.873 67.4627H124.291L130.694 44.3595ZM138.04 58.8997L135.849 48.7921L133.558 58.8997H138.04Z"/>
<path d="M27.2546 68H14.0242C13.6295 68 13.2943 67.7078 13.2392 67.3138L11.1312 52.5054H9.61409C9.25025 52.5054 8.93272 52.2575 8.84452 51.9011L6.69899 43.2861C2.68577 42.2414 0 39.034 0 34.908C0 30.7621 2.66813 27.7451 6.87319 26.842C5.37595 25.6843 4.41013 23.867 4.41013 21.8262C4.41013 18.3355 7.23923 15.4955 10.7166 15.4955C10.8136 15.4955 10.9063 15.5132 10.9923 15.5442C11.0783 15.5132 11.1709 15.4955 11.2679 15.4955H12.355C11.4906 14.0058 11.0253 12.0026 11.0253 10.7586C11.0253 5.7428 14.8158 2.2366 22.6107 0.0363673C22.6526 0.0230862 22.6945 0.0142322 22.7386 0.00759164C22.8313 -0.00568943 22.9217 -0.00126241 23.0099 0.0186592C23.1223 0.0430078 23.2282 0.091705 23.3164 0.155897C23.4112 0.226729 23.4906 0.317483 23.5479 0.425945C23.592 0.507845 23.6207 0.596385 23.6317 0.689353C23.6383 0.73141 23.6405 0.773466 23.6405 0.813309C23.6449 4.85075 25.0341 5.84241 26.3946 6.27847L26.8026 6.40906C29.4531 7.25463 32.4586 8.21086 32.4586 11.8654C32.4586 13.2045 31.9933 14.5592 31.2105 15.6394C34.7342 16.2393 37.1443 18.6586 37.1443 21.8262C37.1443 24.0795 36.4189 25.7374 34.893 26.9062C39.259 28.0063 41.2788 31.5634 41.2788 34.908C41.2788 39.0096 38.5357 42.279 34.5732 43.3105L32.4343 51.9011C32.3461 52.2575 32.0264 52.5054 31.6625 52.5054H30.1455L28.0374 67.3138C27.9845 67.71 27.6493 68 27.2546 68ZM14.7122 66.4063H26.5644L28.5424 52.5076H12.732L14.7122 66.4063ZM10.2337 50.9117H31.0451L32.8643 43.6071C32.5357 43.6381 32.1984 43.6536 31.8588 43.6536H9.62732C9.21277 43.6536 8.80703 43.6315 8.41012 43.5938L10.2337 50.9117ZM9.62732 28.1568C5.9184 28.1568 1.58765 29.9254 1.58765 34.908C1.58765 39.1159 4.89525 42.0554 9.62732 42.0554H31.8588C36.3241 42.0554 39.6912 38.9831 39.6912 34.908C39.6912 31.5479 37.3009 28.1568 31.958 28.1568H23.3296C22.8908 28.1568 22.5358 27.8004 22.5358 27.3599C22.5358 26.9195 22.8908 26.5631 23.3296 26.5631H32.1829C34.5776 25.6777 35.5567 24.2964 35.5567 21.824C35.5567 19.0814 32.9988 17.0893 29.4685 17.087C29.4597 17.087 29.4354 17.087 29.4178 17.087C29.3031 17.0826 29.1951 17.0494 29.0981 17.0007C29.0032 16.952 28.915 16.8834 28.8445 16.7949C28.7827 16.7174 28.7342 16.6288 28.7056 16.5314C28.6747 16.4385 28.6615 16.3433 28.6681 16.2481C28.6747 16.133 28.7056 16.0246 28.7541 15.9272C28.8026 15.8298 28.8709 15.7434 28.9591 15.6726C28.9724 15.6615 28.9878 15.6505 29.0032 15.6394C29.8654 15.0086 30.8709 13.6428 30.8709 11.8654C30.8709 9.49691 29.1422 8.82622 26.3219 7.92975L25.9117 7.79915C23.5236 7.03327 22.2932 5.13187 22.0837 1.85366C15.6295 3.85025 12.613 6.69461 12.613 10.7586C12.613 12.0513 13.2855 14.4862 14.3197 15.4955H18.4344C18.8732 15.4955 19.2282 15.8519 19.2282 16.2924C19.2282 16.7329 18.8732 17.0893 18.4344 17.0893H14.0308C14.0264 17.0893 14.022 17.0893 14.0154 17.0893H11.2679C11.1709 17.0893 11.0783 17.0715 10.9923 17.0406C10.9063 17.0715 10.8136 17.0893 10.7166 17.0893C8.11464 17.0893 5.99778 19.2142 5.99778 21.8262C5.99778 24.4381 8.11464 26.5631 10.7166 26.5631H11.8192C12.258 26.5631 12.613 26.9195 12.613 27.3599C12.613 27.8004 12.258 28.1568 11.8192 28.1568H9.62732Z"/>
</mask>
<path d="M51.8313 38.3151C48.6637 38.3151 45.9904 37.733 43.8114 36.5689L45.4962 31.364C47.8101 32.1923 49.8768 32.6064 51.6965 32.6064C52.6849 32.6064 53.4038 32.4945 53.8531 32.2706C54.3248 32.0244 54.5607 31.6662 54.5607 31.1961C54.5607 30.8826 54.4372 30.614 54.19 30.3901C53.9429 30.1439 53.4487 29.8752 52.7074 29.5842C51.966 29.2932 50.854 28.935 49.3714 28.5096C47.5517 27.9723 46.1365 27.0993 45.1255 25.8904C44.1146 24.6591 43.6092 23.2487 43.6092 21.6593C43.6092 19.1967 44.4179 17.3386 46.0354 16.0849C47.6753 14.8089 49.8768 14.1709 52.64 14.1709C54.0777 14.1709 55.493 14.3276 56.8858 14.641C58.2786 14.932 59.5142 15.3686 60.5925 15.9506L58.7728 21.0212C57.5148 20.5959 56.414 20.2937 55.4705 20.1146C54.5495 19.9131 53.6509 19.8123 52.7748 19.8123C51.2921 19.8123 50.5508 20.2153 50.5508 21.0212C50.5508 21.4242 50.7866 21.7712 51.2584 22.0622C51.7526 22.3309 52.7523 22.6779 54.2574 23.1032C56.6162 23.73 58.4022 24.6927 59.6153 25.9911C60.8284 27.2672 61.4349 28.8007 61.4349 30.5916C61.4349 33.0765 60.6262 34.9906 59.0087 36.3338C57.3913 37.6547 54.9988 38.3151 51.8313 38.3151Z" fill="#B24DC2"/>
<path d="M63.1129 14.6746H70.6947L72.885 29.4163L75.1427 18.6035H82.9941L85.2855 29.4163L87.4758 14.6746H95.0577L89.8009 37.7778H81.9495L79.0853 25.3531L76.221 37.7778H68.3696L63.1129 14.6746Z" fill="#B24DC2"/>
<path d="M97.9635 14.6746H105.748V37.7778H97.9635V14.6746Z" fill="#B24DC2"/>
<path d="M127.695 38.3151C123.472 38.3151 120.889 36.3674 119.945 32.4721L119.103 29.0133H117.519V37.7778H110.139V14.6746H120.349C122.281 14.6746 123.977 14.9656 125.438 15.5477C126.92 16.1073 128.066 16.9021 128.875 17.9319C129.683 18.9616 130.088 20.1482 130.088 21.4914C130.088 22.9913 129.717 24.2561 128.976 25.2859C128.257 26.2933 127.134 27.1216 125.606 27.7709C125.763 28.6216 125.943 29.3939 126.145 30.0879C126.415 30.9386 126.786 31.5319 127.257 31.8677C127.729 32.2035 128.414 32.3714 129.313 32.3714C129.627 32.3714 130.122 32.3266 130.795 32.237V37.7106C129.74 38.1136 128.706 38.3151 127.695 38.3151ZM118.799 24.3121C120.462 24.3121 121.63 24.133 122.304 23.7748C123 23.3942 123.348 22.7562 123.348 21.8607C123.348 21.0996 123.068 20.5511 122.506 20.2153C121.944 19.8571 121.057 19.678 119.844 19.678H117.519V24.3121H118.799Z" fill="#B24DC2"/>
<path d="M133.668 14.6746H140.946V32.6736H149V37.7778H133.668V14.6746Z" fill="#B24DC2"/>
<path d="M50.1844 49.4637H45.3658V44.3595H62.8545V49.4637H58.0359V67.4627H50.1844V49.4637Z" fill="#B24DC2"/>
<path d="M76.6237 68C74.1975 68 72.0409 67.4851 70.1539 66.4553C68.2893 65.4255 66.8291 64.0039 65.7733 62.1906C64.7399 60.3549 64.2232 58.2729 64.2232 55.9447C64.2232 53.5941 64.7399 51.5009 65.7733 49.6652C66.8291 47.8295 68.2893 46.4079 70.1539 45.4005C72.0409 44.3707 74.1975 43.8558 76.6237 43.8558C79.0499 43.8558 81.1953 44.3707 83.0598 45.4005C84.9469 46.4079 86.4071 47.8295 87.4404 49.6652C88.4963 51.4785 89.0242 53.5717 89.0242 55.9447C89.0242 58.2729 88.4963 60.3549 87.4404 62.1906C86.4071 64.0039 84.9469 65.4255 83.0598 66.4553C81.1728 67.4851 79.0274 68 76.6237 68ZM76.6237 61.8884C78.039 61.8884 79.1959 61.3399 80.0945 60.243C81.0155 59.146 81.4761 57.7021 81.4761 55.9111C81.4761 54.7246 81.2627 53.6724 80.8358 52.7546C80.4315 51.8143 79.8586 51.0867 79.1173 50.5718C78.3759 50.0346 77.5335 49.7659 76.59 49.7659C75.6689 49.7659 74.8378 50.0346 74.0964 50.5718C73.3551 51.0867 72.7822 51.8143 72.3779 52.7546C71.9735 53.6724 71.7713 54.7246 71.7713 55.9111C71.7713 57.7021 72.2206 59.146 73.1192 60.243C74.0178 61.3399 75.186 61.8884 76.6237 61.8884Z" fill="#B24DC2"/>
<path d="M92.2541 44.3595H100.611C104.071 44.3595 106.744 45.0311 108.631 46.3743C110.54 47.7175 111.495 49.598 111.495 52.0158C111.495 53.5381 111.023 54.8701 110.08 56.0118C109.159 57.1536 107.89 58.0379 106.272 58.6647C104.677 59.2691 102.902 59.5714 100.948 59.5714H99.5327V67.4627H92.2541V44.3595ZM100.982 54.9037C102.172 54.9037 103.093 54.6574 103.745 54.1649C104.396 53.6724 104.722 52.956 104.722 52.0158C104.722 51.0756 104.396 50.3704 103.745 49.9002C103.116 49.4301 102.195 49.1951 100.982 49.1951H99.5327V54.8365C99.9819 54.8813 100.465 54.9037 100.982 54.9037Z" fill="#B24DC2"/>
<path d="M114.137 44.3595H121.921V67.4627H114.137V44.3595Z" fill="#B24DC2"/>
<path d="M130.694 44.3595H140.938L147.643 67.4627H139.725L138.848 63.0301H132.85L131.873 67.4627H124.291L130.694 44.3595ZM138.04 58.8997L135.849 48.7921L133.558 58.8997H138.04Z" fill="#B24DC2"/>
<path d="M51.8313 38.3151C48.6637 38.3151 45.9904 37.733 43.8114 36.5689L45.4962 31.364C47.8101 32.1923 49.8768 32.6064 51.6965 32.6064C52.6849 32.6064 53.4038 32.4945 53.8531 32.2706C54.3248 32.0244 54.5607 31.6662 54.5607 31.1961C54.5607 30.8826 54.4372 30.614 54.19 30.3901C53.9429 30.1439 53.4487 29.8752 52.7074 29.5842C51.966 29.2932 50.854 28.935 49.3714 28.5096C47.5517 27.9723 46.1365 27.0993 45.1255 25.8904C44.1146 24.6591 43.6092 23.2487 43.6092 21.6593C43.6092 19.1967 44.4179 17.3386 46.0354 16.0849C47.6753 14.8089 49.8768 14.1709 52.64 14.1709C54.0777 14.1709 55.493 14.3276 56.8858 14.641C58.2786 14.932 59.5142 15.3686 60.5925 15.9506L58.7728 21.0212C57.5148 20.5959 56.414 20.2937 55.4705 20.1146C54.5495 19.9131 53.6509 19.8123 52.7748 19.8123C51.2921 19.8123 50.5508 20.2153 50.5508 21.0212C50.5508 21.4242 50.7866 21.7712 51.2584 22.0622C51.7526 22.3309 52.7523 22.6779 54.2574 23.1032C56.6162 23.73 58.4022 24.6927 59.6153 25.9911C60.8284 27.2672 61.4349 28.8007 61.4349 30.5916C61.4349 33.0765 60.6262 34.9906 59.0087 36.3338C57.3913 37.6547 54.9988 38.3151 51.8313 38.3151Z" stroke="#B24DC2" stroke-width="5.02578" mask="url(#path-1-inside-1_32_481)"/>
<path d="M63.1129 14.6746H70.6947L72.885 29.4163L75.1427 18.6035H82.9941L85.2855 29.4163L87.4758 14.6746H95.0577L89.8009 37.7778H81.9495L79.0853 25.3531L76.221 37.7778H68.3696L63.1129 14.6746Z" stroke="#B24DC2" stroke-width="5.02578" mask="url(#path-1-inside-1_32_481)"/>
<path d="M97.9635 14.6746H105.748V37.7778H97.9635V14.6746Z" stroke="#B24DC2" stroke-width="5.02578" mask="url(#path-1-inside-1_32_481)"/>
<path d="M127.695 38.3151C123.472 38.3151 120.889 36.3674 119.945 32.4721L119.103 29.0133H117.519V37.7778H110.139V14.6746H120.349C122.281 14.6746 123.977 14.9656 125.438 15.5477C126.92 16.1073 128.066 16.9021 128.875 17.9319C129.683 18.9616 130.088 20.1482 130.088 21.4914C130.088 22.9913 129.717 24.2561 128.976 25.2859C128.257 26.2933 127.134 27.1216 125.606 27.7709C125.763 28.6216 125.943 29.3939 126.145 30.0879C126.415 30.9386 126.786 31.5319 127.257 31.8677C127.729 32.2035 128.414 32.3714 129.313 32.3714C129.627 32.3714 130.122 32.3266 130.795 32.237V37.7106C129.74 38.1136 128.706 38.3151 127.695 38.3151ZM118.799 24.3121C120.462 24.3121 121.63 24.133 122.304 23.7748C123 23.3942 123.348 22.7562 123.348 21.8607C123.348 21.0996 123.068 20.5511 122.506 20.2153C121.944 19.8571 121.057 19.678 119.844 19.678H117.519V24.3121H118.799Z" stroke="#B24DC2" stroke-width="5.02578" mask="url(#path-1-inside-1_32_481)"/>
<path d="M133.668 14.6746H140.946V32.6736H149V37.7778H133.668V14.6746Z" stroke="#B24DC2" stroke-width="5.02578" mask="url(#path-1-inside-1_32_481)"/>
<path d="M50.1844 49.4637H45.3658V44.3595H62.8545V49.4637H58.0359V67.4627H50.1844V49.4637Z" stroke="#B24DC2" stroke-width="5.02578" mask="url(#path-1-inside-1_32_481)"/>
<path d="M76.6237 68C74.1975 68 72.0409 67.4851 70.1539 66.4553C68.2893 65.4255 66.8291 64.0039 65.7733 62.1906C64.7399 60.3549 64.2232 58.2729 64.2232 55.9447C64.2232 53.5941 64.7399 51.5009 65.7733 49.6652C66.8291 47.8295 68.2893 46.4079 70.1539 45.4005C72.0409 44.3707 74.1975 43.8558 76.6237 43.8558C79.0499 43.8558 81.1953 44.3707 83.0598 45.4005C84.9469 46.4079 86.4071 47.8295 87.4404 49.6652C88.4963 51.4785 89.0242 53.5717 89.0242 55.9447C89.0242 58.2729 88.4963 60.3549 87.4404 62.1906C86.4071 64.0039 84.9469 65.4255 83.0598 66.4553C81.1728 67.4851 79.0274 68 76.6237 68ZM76.6237 61.8884C78.039 61.8884 79.1959 61.3399 80.0945 60.243C81.0155 59.146 81.4761 57.7021 81.4761 55.9111C81.4761 54.7246 81.2627 53.6724 80.8358 52.7546C80.4315 51.8143 79.8586 51.0867 79.1173 50.5718C78.3759 50.0346 77.5335 49.7659 76.59 49.7659C75.6689 49.7659 74.8378 50.0346 74.0964 50.5718C73.3551 51.0867 72.7822 51.8143 72.3779 52.7546C71.9735 53.6724 71.7713 54.7246 71.7713 55.9111C71.7713 57.7021 72.2206 59.146 73.1192 60.243C74.0178 61.3399 75.186 61.8884 76.6237 61.8884Z" stroke="#B24DC2" stroke-width="5.02578" mask="url(#path-1-inside-1_32_481)"/>
<path d="M92.2541 44.3595H100.611C104.071 44.3595 106.744 45.0311 108.631 46.3743C110.54 47.7175 111.495 49.598 111.495 52.0158C111.495 53.5381 111.023 54.8701 110.08 56.0118C109.159 57.1536 107.89 58.0379 106.272 58.6647C104.677 59.2691 102.902 59.5714 100.948 59.5714H99.5327V67.4627H92.2541V44.3595ZM100.982 54.9037C102.172 54.9037 103.093 54.6574 103.745 54.1649C104.396 53.6724 104.722 52.956 104.722 52.0158C104.722 51.0756 104.396 50.3704 103.745 49.9002C103.116 49.4301 102.195 49.1951 100.982 49.1951H99.5327V54.8365C99.9819 54.8813 100.465 54.9037 100.982 54.9037Z" stroke="#B24DC2" stroke-width="5.02578" mask="url(#path-1-inside-1_32_481)"/>
<path d="M114.137 44.3595H121.921V67.4627H114.137V44.3595Z" stroke="#B24DC2" stroke-width="5.02578" mask="url(#path-1-inside-1_32_481)"/>
<path d="M130.694 44.3595H140.938L147.643 67.4627H139.725L138.848 63.0301H132.85L131.873 67.4627H124.291L130.694 44.3595ZM138.04 58.8997L135.849 48.7921L133.558 58.8997H138.04Z" stroke="#B24DC2" stroke-width="5.02578" mask="url(#path-1-inside-1_32_481)"/>
<path d="M27.2546 68H14.0242C13.6295 68 13.2943 67.7078 13.2392 67.3138L11.1312 52.5054H9.61409C9.25025 52.5054 8.93272 52.2575 8.84452 51.9011L6.69899 43.2861C2.68577 42.2414 0 39.034 0 34.908C0 30.7621 2.66813 27.7451 6.87319 26.842C5.37595 25.6843 4.41013 23.867 4.41013 21.8262C4.41013 18.3355 7.23923 15.4955 10.7166 15.4955C10.8136 15.4955 10.9063 15.5132 10.9923 15.5442C11.0783 15.5132 11.1709 15.4955 11.2679 15.4955H12.355C11.4906 14.0058 11.0253 12.0026 11.0253 10.7586C11.0253 5.7428 14.8158 2.2366 22.6107 0.0363673C22.6526 0.0230862 22.6945 0.0142322 22.7386 0.00759164C22.8313 -0.00568943 22.9217 -0.00126241 23.0099 0.0186592C23.1223 0.0430078 23.2282 0.091705 23.3164 0.155897C23.4112 0.226729 23.4906 0.317483 23.5479 0.425945C23.592 0.507845 23.6207 0.596385 23.6317 0.689353C23.6383 0.73141 23.6405 0.773466 23.6405 0.813309C23.6449 4.85075 25.0341 5.84241 26.3946 6.27847L26.8026 6.40906C29.4531 7.25463 32.4586 8.21086 32.4586 11.8654C32.4586 13.2045 31.9933 14.5592 31.2105 15.6394C34.7342 16.2393 37.1443 18.6586 37.1443 21.8262C37.1443 24.0795 36.4189 25.7374 34.893 26.9062C39.259 28.0063 41.2788 31.5634 41.2788 34.908C41.2788 39.0096 38.5357 42.279 34.5732 43.3105L32.4343 51.9011C32.3461 52.2575 32.0264 52.5054 31.6625 52.5054H30.1455L28.0374 67.3138C27.9845 67.71 27.6493 68 27.2546 68ZM14.7122 66.4063H26.5644L28.5424 52.5076H12.732L14.7122 66.4063ZM10.2337 50.9117H31.0451L32.8643 43.6071C32.5357 43.6381 32.1984 43.6536 31.8588 43.6536H9.62732C9.21277 43.6536 8.80703 43.6315 8.41012 43.5938L10.2337 50.9117ZM9.62732 28.1568C5.9184 28.1568 1.58765 29.9254 1.58765 34.908C1.58765 39.1159 4.89525 42.0554 9.62732 42.0554H31.8588C36.3241 42.0554 39.6912 38.9831 39.6912 34.908C39.6912 31.5479 37.3009 28.1568 31.958 28.1568H23.3296C22.8908 28.1568 22.5358 27.8004 22.5358 27.3599C22.5358 26.9195 22.8908 26.5631 23.3296 26.5631H32.1829C34.5776 25.6777 35.5567 24.2964 35.5567 21.824C35.5567 19.0814 32.9988 17.0893 29.4685 17.087C29.4597 17.087 29.4354 17.087 29.4178 17.087C29.3031 17.0826 29.1951 17.0494 29.0981 17.0007C29.0032 16.952 28.915 16.8834 28.8445 16.7949C28.7827 16.7174 28.7342 16.6288 28.7056 16.5314C28.6747 16.4385 28.6615 16.3433 28.6681 16.2481C28.6747 16.133 28.7056 16.0246 28.7541 15.9272C28.8026 15.8298 28.8709 15.7434 28.9591 15.6726C28.9724 15.6615 28.9878 15.6505 29.0032 15.6394C29.8654 15.0086 30.8709 13.6428 30.8709 11.8654C30.8709 9.49691 29.1422 8.82622 26.3219 7.92975L25.9117 7.79915C23.5236 7.03327 22.2932 5.13187 22.0837 1.85366C15.6295 3.85025 12.613 6.69461 12.613 10.7586C12.613 12.0513 13.2855 14.4862 14.3197 15.4955H18.4344C18.8732 15.4955 19.2282 15.8519 19.2282 16.2924C19.2282 16.7329 18.8732 17.0893 18.4344 17.0893H14.0308C14.0264 17.0893 14.022 17.0893 14.0154 17.0893H11.2679C11.1709 17.0893 11.0783 17.0715 10.9923 17.0406C10.9063 17.0715 10.8136 17.0893 10.7166 17.0893C8.11464 17.0893 5.99778 19.2142 5.99778 21.8262C5.99778 24.4381 8.11464 26.5631 10.7166 26.5631H11.8192C12.258 26.5631 12.613 26.9195 12.613 27.3599C12.613 27.8004 12.258 28.1568 11.8192 28.1568H9.62732Z" stroke="#B24DC2" stroke-width="5.02578" mask="url(#path-1-inside-1_32_481)"/>
</svg>
