<svg width="50" height="49" viewBox="0 0 50 49" fill="none" xmlns="http://www.w3.org/2000/svg">
<path d="M50 24.5C50 38.031 38.8071 49 25 49C11.1929 49 0 38.031 0 24.5C0 10.969 11.1929 0 25 0C38.8071 0 50 10.969 50 24.5Z" fill="#B24DC2"/>
<path d="M20.4167 15.5167C20.4167 12.8105 22.6552 10.6167 25.4167 10.6167C28.1781 10.6167 30.4167 12.8105 30.4167 15.5167C30.4167 18.2229 28.1781 20.4167 25.4167 20.4167C22.6552 20.4167 20.4167 18.2229 20.4167 15.5167Z" fill="#FF8574"/>
<path d="M12.9167 18.7833C12.9167 15.8516 15.3418 13.475 18.3333 13.475C21.3249 13.475 23.75 15.8516 23.75 18.7833C23.75 21.715 21.3249 24.0917 18.3333 24.0917C15.3418 24.0917 12.9167 21.715 12.9167 18.7833Z" fill="#88F09F"/>
<path d="M26.6667 17.9667C26.6667 15.0349 29.0918 12.6583 32.0833 12.6583C35.0749 12.6583 37.5 15.0349 37.5 17.9667C37.5 20.8984 35.0749 23.275 32.0833 23.275C29.0918 23.275 26.6667 20.8984 26.6667 17.9667Z" fill="#964B30"/>
<path d="M20.1123 36.8038C19.7413 37.0115 19.8917 37.5667 20.319 37.5667H29.681C30.1083 37.5667 30.2587 37.0115 29.8877 36.8038L25.4167 34.3H24.5833L20.1123 36.8038Z" fill="#C4C4C4"/>
<path d="M24.1667 28.5833H25.8333V35.1167H24.1667V28.5833Z" fill="#C4C4C4"/>
<path d="M37.5 17.9667C37.9602 17.9667 38.3356 18.3331 38.3148 18.7836C37.9459 26.7568 32.1258 29.4 25 29.4C17.8742 29.4 12.0541 26.7568 11.6852 18.7836C11.6644 18.3331 12.0398 17.9667 12.5 17.9667H37.5Z" fill="#C4C4C4"/>
<path d="M32.1667 42.4859C32.1667 42.9316 28.9767 43.2929 25.0417 43.2929C21.1066 43.2929 17.9167 42.9316 17.9167 42.4859C17.9167 42.0402 21.1066 41.6788 25.0417 41.6788C28.9767 41.6788 32.1667 42.0402 32.1667 42.4859Z" fill="#3D0247"/>
</svg>
