<svg width="48" height="49" viewBox="0 0 48 49" fill="none" xmlns="http://www.w3.org/2000/svg">
<path d="M48 24.5C48 38.031 37.2548 49 24 49C10.7452 49 0 38.031 0 24.5C0 10.969 10.7452 0 24 0C37.2548 0 48 10.969 48 24.5Z" fill="#B24DC2"/>
<path d="M16.8 14.5744C16.8 10.5844 19.9684 7.34999 23.8769 7.34999H24.1231C28.0316 7.34999 31.2 10.5844 31.2 14.5744C31.2 15.7713 30.2495 16.7417 29.0769 16.7417H18.9231C17.7505 16.7417 16.8 15.7713 16.8 14.5744Z" fill="#70321C"/>
<path d="M16.2683 14.9104C16.1329 14.392 16.5157 13.8833 17.0413 13.8833H30.9587C31.4843 13.8833 31.8671 14.392 31.7317 14.9104L26.0123 36.8051C25.7692 37.7358 24.9435 38.3833 24 38.3833C23.0565 38.3833 22.2308 37.7358 21.9877 36.8051L16.2683 14.9104Z" fill="#F5DD5F"/>
<path d="M16.2683 14.9104C16.1329 14.392 16.5157 13.8833 17.0413 13.8833H30.9587C31.4843 13.8833 31.8671 14.392 31.7317 14.9104L26.0123 36.8051C25.7692 37.7358 24.9435 38.3833 24 38.3833C23.0565 38.3833 22.2308 37.7358 21.9877 36.8051L16.2683 14.9104Z" fill="#F5DD5F"/>
<path d="M17.6 19.6C17.3791 19.6 17.2 19.4172 17.2 19.1917V18.375C17.2 18.1495 17.3791 17.9667 17.6 17.9667H18.4C18.6209 17.9667 18.8 18.1495 18.8 18.375V19.1917C18.8 19.4172 18.6209 19.6 18.4 19.6H17.6Z" fill="#C5AD2F"/>
<path d="M20 19.6C19.7791 19.6 19.6 19.4172 19.6 19.1917V18.375C19.6 18.1495 19.7791 17.9667 20 17.9667H20.8C21.0209 17.9667 21.2 18.1495 21.2 18.375V19.1917C21.2 19.4172 21.0209 19.6 20.8 19.6H20Z" fill="#C5AD2F"/>
<path d="M22.4 19.6C22.1791 19.6 22 19.4172 22 19.1917V18.375C22 18.1495 22.1791 17.9667 22.4 17.9667H23.2C23.4209 17.9667 23.6 18.1495 23.6 18.375V19.1917C23.6 19.4172 23.4209 19.6 23.2 19.6H22.4Z" fill="#C5AD2F"/>
<path d="M24.8 19.6C24.5791 19.6 24.4 19.4172 24.4 19.1917V18.375C24.4 18.1495 24.5791 17.9667 24.8 17.9667H25.6C25.8209 17.9667 26 18.1495 26 18.375V19.1917C26 19.4172 25.8209 19.6 25.6 19.6H24.8Z" fill="#C5AD2F"/>
<path d="M27.2 19.6C26.9791 19.6 26.8 19.4172 26.8 19.1917V18.375C26.8 18.1495 26.9791 17.9667 27.2 17.9667H28C28.2209 17.9667 28.4 18.1495 28.4 18.375V19.1917C28.4 19.4172 28.2209 19.6 28 19.6H27.2Z" fill="#C5AD2F"/>
<path d="M29.6 19.6C29.3791 19.6 29.2 19.4172 29.2 19.1917V18.375C29.2 18.1495 29.3791 17.9667 29.6 17.9667H30.4C30.6209 17.9667 30.8 18.1495 30.8 18.375V19.1917C30.8 19.4172 30.6209 19.6 30.4 19.6H29.6Z" fill="#C5AD2F"/>
<path d="M17.6 22.05C17.3791 22.05 17.2 21.8672 17.2 21.6417V20.825C17.2 20.5995 17.3791 20.4167 17.6 20.4167H18.4C18.6209 20.4167 18.8 20.5995 18.8 20.825V21.6417C18.8 21.8672 18.6209 22.05 18.4 22.05H17.6Z" fill="#C5AD2F"/>
<path d="M20 22.05C19.7791 22.05 19.6 21.8672 19.6 21.6417V20.825C19.6 20.5995 19.7791 20.4167 20 20.4167H20.8C21.0209 20.4167 21.2 20.5995 21.2 20.825V21.6417C21.2 21.8672 21.0209 22.05 20.8 22.05H20Z" fill="#C5AD2F"/>
<path d="M22.4 22.05C22.1791 22.05 22 21.8672 22 21.6417V20.825C22 20.5995 22.1791 20.4167 22.4 20.4167H23.2C23.4209 20.4167 23.6 20.5995 23.6 20.825V21.6417C23.6 21.8672 23.4209 22.05 23.2 22.05H22.4Z" fill="#C5AD2F"/>
<path d="M24.8 22.05C24.5791 22.05 24.4 21.8672 24.4 21.6417V20.825C24.4 20.5995 24.5791 20.4167 24.8 20.4167H25.6C25.8209 20.4167 26 20.5995 26 20.825V21.6417C26 21.8672 25.8209 22.05 25.6 22.05H24.8Z" fill="#C5AD2F"/>
<path d="M27.2 22.05C26.9791 22.05 26.8 21.8672 26.8 21.6417V20.825C26.8 20.5995 26.9791 20.4167 27.2 20.4167H28C28.2209 20.4167 28.4 20.5995 28.4 20.825V21.6417C28.4 21.8672 28.2209 22.05 28 22.05H27.2Z" fill="#C5AD2F"/>
<path d="M29.6 22.05C29.3791 22.05 29.2 21.8672 29.2 21.6417V20.825C29.2 20.5995 29.3791 20.4167 29.6 20.4167H30.4C30.6209 20.4167 30.8 20.5995 30.8 20.825V21.6417C30.8 21.8672 30.6209 22.05 30.4 22.05H29.6Z" fill="#C5AD2F"/>
<path d="M17.6 24.5C17.3791 24.5 17.2 24.3172 17.2 24.0917V23.275C17.2 23.0495 17.3791 22.8667 17.6 22.8667H18.4C18.6209 22.8667 18.8 23.0495 18.8 23.275V24.0917C18.8 24.3172 18.6209 24.5 18.4 24.5H17.6Z" fill="#C5AD2F"/>
<path d="M20 24.5C19.7791 24.5 19.6 24.3172 19.6 24.0917V23.275C19.6 23.0495 19.7791 22.8667 20 22.8667H20.8C21.0209 22.8667 21.2 23.0495 21.2 23.275V24.0917C21.2 24.3172 21.0209 24.5 20.8 24.5H20Z" fill="#C5AD2F"/>
<path d="M22.4 24.5C22.1791 24.5 22 24.3172 22 24.0917V23.275C22 23.0495 22.1791 22.8667 22.4 22.8667H23.2C23.4209 22.8667 23.6 23.0495 23.6 23.275V24.0917C23.6 24.3172 23.4209 24.5 23.2 24.5H22.4Z" fill="#C5AD2F"/>
<path d="M24.8 24.5C24.5791 24.5 24.4 24.3172 24.4 24.0917V23.275C24.4 23.0495 24.5791 22.8667 24.8 22.8667H25.6C25.8209 22.8667 26 23.0495 26 23.275V24.0917C26 24.3172 25.8209 24.5 25.6 24.5H24.8Z" fill="#C5AD2F"/>
<path d="M27.2 24.5C26.9791 24.5 26.8 24.3172 26.8 24.0917V23.275C26.8 23.0495 26.9791 22.8667 27.2 22.8667H28C28.2209 22.8667 28.4 23.0495 28.4 23.275V24.0917C28.4 24.3172 28.2209 24.5 28 24.5H27.2Z" fill="#C5AD2F"/>
<path d="M29.6 24.5C29.3791 24.5 29.2 24.3172 29.2 24.0917V23.275C29.2 23.0495 29.3791 22.8667 29.6 22.8667H30.4C30.6209 22.8667 30.8 23.0495 30.8 23.275V24.0917C30.8 24.3172 30.6209 24.5 30.4 24.5H29.6Z" fill="#C5AD2F"/>
<path d="M17.6 26.95C17.3791 26.95 17.2 26.7672 17.2 26.5417V25.725C17.2 25.4995 17.3791 25.3167 17.6 25.3167H18.4C18.6209 25.3167 18.8 25.4995 18.8 25.725V26.5417C18.8 26.7672 18.6209 26.95 18.4 26.95H17.6Z" fill="#C5AD2F"/>
<path d="M20 26.95C19.7791 26.95 19.6 26.7672 19.6 26.5417V25.725C19.6 25.4995 19.7791 25.3167 20 25.3167H20.8C21.0209 25.3167 21.2 25.4995 21.2 25.725V26.5417C21.2 26.7672 21.0209 26.95 20.8 26.95H20Z" fill="#C5AD2F"/>
<path d="M22.4 26.95C22.1791 26.95 22 26.7672 22 26.5417V25.725C22 25.4995 22.1791 25.3167 22.4 25.3167H23.2C23.4209 25.3167 23.6 25.4995 23.6 25.725V26.5417C23.6 26.7672 23.4209 26.95 23.2 26.95H22.4Z" fill="#C5AD2F"/>
<path d="M24.8 26.95C24.5791 26.95 24.4 26.7672 24.4 26.5417V25.725C24.4 25.4995 24.5791 25.3167 24.8 25.3167H25.6C25.8209 25.3167 26 25.4995 26 25.725V26.5417C26 26.7672 25.8209 26.95 25.6 26.95H24.8Z" fill="#C5AD2F"/>
<path d="M27.2 26.95C26.9791 26.95 26.8 26.7672 26.8 26.5417V25.725C26.8 25.4995 26.9791 25.3167 27.2 25.3167H28C28.2209 25.3167 28.4 25.4995 28.4 25.725V26.5417C28.4 26.7672 28.2209 26.95 28 26.95H27.2Z" fill="#C5AD2F"/>
<path d="M29.6 26.95C29.3791 26.95 29.2 26.7672 29.2 26.5417V25.725C29.2 25.4995 29.3791 25.3167 29.6 25.3167H30.4C30.6209 25.3167 30.8 25.4995 30.8 25.725V26.5417C30.8 26.7672 30.6209 26.95 30.4 26.95H29.6Z" fill="#C5AD2F"/>
<path d="M17.6 29.4C17.3791 29.4 17.2 29.2172 17.2 28.9917V28.175C17.2 27.9495 17.3791 27.7667 17.6 27.7667H18.4C18.6209 27.7667 18.8 27.9495 18.8 28.175V28.9917C18.8 29.2172 18.6209 29.4 18.4 29.4H17.6Z" fill="#C5AD2F"/>
<path d="M20 29.4C19.7791 29.4 19.6 29.2172 19.6 28.9917V28.175C19.6 27.9495 19.7791 27.7667 20 27.7667H20.8C21.0209 27.7667 21.2 27.9495 21.2 28.175V28.9917C21.2 29.2172 21.0209 29.4 20.8 29.4H20Z" fill="#C5AD2F"/>
<path d="M22.4 29.4C22.1791 29.4 22 29.2172 22 28.9917V28.175C22 27.9495 22.1791 27.7667 22.4 27.7667H23.2C23.4209 27.7667 23.6 27.9495 23.6 28.175V28.9917C23.6 29.2172 23.4209 29.4 23.2 29.4H22.4Z" fill="#C5AD2F"/>
<path d="M24.8 29.4C24.5791 29.4 24.4 29.2172 24.4 28.9917V28.175C24.4 27.9495 24.5791 27.7667 24.8 27.7667H25.6C25.8209 27.7667 26 27.9495 26 28.175V28.9917C26 29.2172 25.8209 29.4 25.6 29.4H24.8Z" fill="#C5AD2F"/>
<path d="M27.2 29.4C26.9791 29.4 26.8 29.2172 26.8 28.9917V28.175C26.8 27.9495 26.9791 27.7667 27.2 27.7667H28C28.2209 27.7667 28.4 27.9495 28.4 28.175V28.9917C28.4 29.2172 28.2209 29.4 28 29.4H27.2Z" fill="#C5AD2F"/>
<path d="M29.6 29.4C29.3791 29.4 29.2 29.2172 29.2 28.9917V28.175C29.2 27.9495 29.3791 27.7667 29.6 27.7667H30.4C30.6209 27.7667 30.8 27.9495 30.8 28.175V28.9917C30.8 29.2172 30.6209 29.4 30.4 29.4H29.6Z" fill="#C5AD2F"/>
<path d="M17.6 31.85C17.3791 31.85 17.2 31.6672 17.2 31.4417V30.625C17.2 30.3995 17.3791 30.2167 17.6 30.2167H18.4C18.6209 30.2167 18.8 30.3995 18.8 30.625V31.4417C18.8 31.6672 18.6209 31.85 18.4 31.85H17.6Z" fill="#C5AD2F"/>
<path d="M20 31.85C19.7791 31.85 19.6 31.6672 19.6 31.4417V30.625C19.6 30.3995 19.7791 30.2167 20 30.2167H20.8C21.0209 30.2167 21.2 30.3995 21.2 30.625V31.4417C21.2 31.6672 21.0209 31.85 20.8 31.85H20Z" fill="#C5AD2F"/>
<path d="M22.4 31.85C22.1791 31.85 22 31.6672 22 31.4417V30.625C22 30.3995 22.1791 30.2167 22.4 30.2167H23.2C23.4209 30.2167 23.6 30.3995 23.6 30.625V31.4417C23.6 31.6672 23.4209 31.85 23.2 31.85H22.4Z" fill="#C5AD2F"/>
<path d="M24.8 31.85C24.5791 31.85 24.4 31.6672 24.4 31.4417V30.625C24.4 30.3995 24.5791 30.2167 24.8 30.2167H25.6C25.8209 30.2167 26 30.3995 26 30.625V31.4417C26 31.6672 25.8209 31.85 25.6 31.85H24.8Z" fill="#C5AD2F"/>
<path d="M27.2 31.85C26.9791 31.85 26.8 31.6672 26.8 31.4417V30.625C26.8 30.3995 26.9791 30.2167 27.2 30.2167H28C28.2209 30.2167 28.4 30.3995 28.4 30.625V31.4417C28.4 31.6672 28.2209 31.85 28 31.85H27.2Z" fill="#C5AD2F"/>
<path d="M29.6 31.85C29.3791 31.85 29.2 31.6672 29.2 31.4417V30.625C29.2 30.3995 29.3791 30.2167 29.6 30.2167H30.4C30.6209 30.2167 30.8 30.3995 30.8 30.625V31.4417C30.8 31.6672 30.6209 31.85 30.4 31.85H29.6Z" fill="#C5AD2F"/>
<path d="M17.6 34.3C17.3791 34.3 17.2 34.1172 17.2 33.8917V33.075C17.2 32.8495 17.3791 32.6667 17.6 32.6667H18.4C18.6209 32.6667 18.8 32.8495 18.8 33.075V33.8917C18.8 34.1172 18.6209 34.3 18.4 34.3H17.6Z" fill="#C5AD2F"/>
<path d="M20 34.3C19.7791 34.3 19.6 34.1172 19.6 33.8917V33.075C19.6 32.8495 19.7791 32.6667 20 32.6667H20.8C21.0209 32.6667 21.2 32.8495 21.2 33.075V33.8917C21.2 34.1172 21.0209 34.3 20.8 34.3H20Z" fill="#C5AD2F"/>
<path d="M22.4 34.3C22.1791 34.3 22 34.1172 22 33.8917V33.075C22 32.8495 22.1791 32.6667 22.4 32.6667H23.2C23.4209 32.6667 23.6 32.8495 23.6 33.075V33.8917C23.6 34.1172 23.4209 34.3 23.2 34.3H22.4Z" fill="#C5AD2F"/>
<path d="M24.8 34.3C24.5791 34.3 24.4 34.1172 24.4 33.8917V33.075C24.4 32.8495 24.5791 32.6667 24.8 32.6667H25.6C25.8209 32.6667 26 32.8495 26 33.075V33.8917C26 34.1172 25.8209 34.3 25.6 34.3H24.8Z" fill="#C5AD2F"/>
<path d="M27.2 34.3C26.9791 34.3 26.8 34.1172 26.8 33.8917V33.075C26.8 32.8495 26.9791 32.6667 27.2 32.6667H28C28.2209 32.6667 28.4 32.8495 28.4 33.075V33.8917C28.4 34.1172 28.2209 34.3 28 34.3H27.2Z" fill="#C5AD2F"/>
<path d="M29.6 34.3C29.3791 34.3 29.2 34.1172 29.2 33.8917V33.075C29.2 32.8495 29.3791 32.6667 29.6 32.6667H30.4C30.6209 32.6667 30.8 32.8495 30.8 33.075V33.8917C30.8 34.1172 30.6209 34.3 30.4 34.3H29.6Z" fill="#C5AD2F"/>
<path d="M17.6 36.75C17.3791 36.75 17.2 36.5672 17.2 36.3417V35.525C17.2 35.2995 17.3791 35.1167 17.6 35.1167H18.4C18.6209 35.1167 18.8 35.2995 18.8 35.525V36.3417C18.8 36.5672 18.6209 36.75 18.4 36.75H17.6Z" fill="#C5AD2F"/>
<path d="M20 36.75C19.7791 36.75 19.6 36.5672 19.6 36.3417V35.525C19.6 35.2995 19.7791 35.1167 20 35.1167H20.8C21.0209 35.1167 21.2 35.2995 21.2 35.525V36.3417C21.2 36.5672 21.0209 36.75 20.8 36.75H20Z" fill="#C5AD2F"/>
<path d="M22.4 36.75C22.1791 36.75 22 36.5672 22 36.3417V35.525C22 35.2995 22.1791 35.1167 22.4 35.1167H23.2C23.4209 35.1167 23.6 35.2995 23.6 35.525V36.3417C23.6 36.5672 23.4209 36.75 23.2 36.75H22.4Z" fill="#C5AD2F"/>
<path d="M24.8 36.75C24.5791 36.75 24.4 36.5672 24.4 36.3417V35.525C24.4 35.2995 24.5791 35.1167 24.8 35.1167H25.6C25.8209 35.1167 26 35.2995 26 35.525V36.3417C26 36.5672 25.8209 36.75 25.6 36.75H24.8Z" fill="#C5AD2F"/>
<path d="M27.2 36.75C26.9791 36.75 26.8 36.5672 26.8 36.3417V35.525C26.8 35.2995 26.9791 35.1167 27.2 35.1167H28C28.2209 35.1167 28.4 35.2995 28.4 35.525V36.3417C28.4 36.5672 28.2209 36.75 28 36.75H27.2Z" fill="#C5AD2F"/>
<path d="M29.6 36.75C29.3791 36.75 29.2 36.5672 29.2 36.3417V35.525C29.2 35.2995 29.3791 35.1167 29.6 35.1167H30.4C30.6209 35.1167 30.8 35.2995 30.8 35.525V36.3417C30.8 36.5672 30.6209 36.75 30.4 36.75H29.6Z" fill="#C5AD2F"/>
<path d="M17.6 17.15C17.3791 17.15 17.2 16.9672 17.2 16.7417V15.925C17.2 15.6995 17.3791 15.5167 17.6 15.5167H18.4C18.6209 15.5167 18.8 15.6995 18.8 15.925V16.7417C18.8 16.9672 18.6209 17.15 18.4 17.15H17.6Z" fill="#C5AD2F"/>
<path d="M20 17.15C19.7791 17.15 19.6 16.9672 19.6 16.7417V15.925C19.6 15.6995 19.7791 15.5167 20 15.5167H20.8C21.0209 15.5167 21.2 15.6995 21.2 15.925V16.7417C21.2 16.9672 21.0209 17.15 20.8 17.15H20Z" fill="#C5AD2F"/>
<path d="M22.4 17.15C22.1791 17.15 22 16.9672 22 16.7417V15.925C22 15.6995 22.1791 15.5167 22.4 15.5167H23.2C23.4209 15.5167 23.6 15.6995 23.6 15.925V16.7417C23.6 16.9672 23.4209 17.15 23.2 17.15H22.4Z" fill="#C5AD2F"/>
<path d="M24.8 17.15C24.5791 17.15 24.4 16.9672 24.4 16.7417V15.925C24.4 15.6995 24.5791 15.5167 24.8 15.5167H25.6C25.8209 15.5167 26 15.6995 26 15.925V16.7417C26 16.9672 25.8209 17.15 25.6 17.15H24.8Z" fill="#C5AD2F"/>
<path d="M27.2 17.15C26.9791 17.15 26.8 16.9672 26.8 16.7417V15.925C26.8 15.6995 26.9791 15.5167 27.2 15.5167H28C28.2209 15.5167 28.4 15.6995 28.4 15.925V16.7417C28.4 16.9672 28.2209 17.15 28 17.15H27.2Z" fill="#C5AD2F"/>
<path d="M29.6 17.15C29.3791 17.15 29.2 16.9672 29.2 16.7417V15.925C29.2 15.6995 29.3791 15.5167 29.6 15.5167H30.4C30.6209 15.5167 30.8 15.6995 30.8 15.925V16.7417C30.8 16.9672 30.6209 17.15 30.4 17.15H29.6Z" fill="#C5AD2F"/>
<path d="M30.88 42.4859C30.88 42.9316 27.8176 43.2929 24.04 43.2929C20.2624 43.2929 17.2 42.9316 17.2 42.4859C17.2 42.0402 20.2624 41.6788 24.04 41.6788C27.8176 41.6788 30.88 42.0402 30.88 42.4859Z" fill="#3D0247"/>
</svg>
