<svg width="48" height="49" viewBox="0 0 48 49" fill="none" xmlns="http://www.w3.org/2000/svg">
<path d="M48 24.5C48 38.031 37.2548 49 24 49C10.7452 49 0 38.031 0 24.5C0 10.969 10.7452 0 24 0C37.2548 0 48 10.969 48 24.5Z" fill="#B24DC2"/>
<path d="M31.2 42.4667C31.2 42.9177 27.9764 43.2833 24 43.2833C20.0236 43.2833 16.8 42.9177 16.8 42.4667C16.8 42.0156 20.0236 41.65 24 41.65C27.9764 41.65 31.2 42.0156 31.2 42.4667Z" fill="#3D0247"/>
<path d="M24 40.0167C23.1163 40.0167 22.4 39.2854 22.4 38.3833V31.85C22.4 30.9479 23.1163 30.2167 24 30.2167C24.8837 30.2167 25.6 30.9479 25.6 31.85V38.3833C25.6 39.2854 24.8837 40.0167 24 40.0167Z" fill="#E1C94B"/>
<path d="M15.2 12.6583C15.2 9.05007 18.0654 6.125 21.6 6.125H26.4C29.9346 6.125 32.8 9.05007 32.8 12.6583V27.3583C32.8 30.9666 29.9346 33.8917 26.4 33.8917H21.6C18.0654 33.8917 15.2 30.9666 15.2 27.3583V12.6583Z" fill="#6A321E"/>
</svg>
